<?xml version="1.0" encoding="utf-8"?>
<!-- Generator: Adobe Illustrator 27.5.0, SVG Export Plug-In . SVG Version: 6.00 Build 0)  -->
<svg version="1.1" xmlns="http://www.w3.org/2000/svg" xmlns:xlink="http://www.w3.org/1999/xlink" x="0px" y="0px"
	 viewBox="0 0 1920 480" style="enable-background:new 0 0 1920 480;" xml:space="preserve">
<g id="BACKGROUND">
	<rect x="0" style="fill:#19195B;" width="1920" height="480"/>
</g>
<g id="OBJECTS">
	<g>
		<path style="fill:#212175;" d="M1920,0v480h-731.27c0,0,36.78-59.9,126.67-37.64c89.89,22.27,180.904-16.398,152.533-92.088
			c-28.36-75.69-23.999-140.993,43.497-143.992c86.997-3.001,167.28-25.38,107.28-119.88c-24.13-30.28-49.9-65.64-16.63-86.4H1920z"
			/>
		<path style="fill:#212175;" d="M0,0v480h729.524c0,0-36.78-59.9-126.67-37.64c-89.89,22.27-158.93-55.882-130.56-131.572
			c38.6-132.233-105.871-64.314-161.051-106.451C219.403,133.188,405.463,39.787,254.034,0H0z"/>
		<g>
			
				<ellipse transform="matrix(0.9999 -0.0103 0.0103 0.9999 -4.0255 5.646)" style="fill:#212175;" cx="545.96" cy="393.522" rx="22.08" ry="22.08"/>
			
				<ellipse transform="matrix(0.1525 -0.9883 0.9883 0.1525 632.9471 1550.7085)" style="fill:#212175;" cx="1220.613" cy="406.315" rx="15.178" ry="15.178"/>
			
				<ellipse transform="matrix(0.1602 -0.9871 0.9871 0.1602 1228.8357 1562.5371)" style="fill:#212175;" cx="1532.689" cy="59.107" rx="17.709" ry="17.709"/>
			
				<ellipse transform="matrix(0.2298 -0.9732 0.9732 0.2298 757.397 1670.6013)" style="fill:#212175;" cx="1434.147" cy="356.794" rx="10.129" ry="10.129"/>
			
				<ellipse transform="matrix(0.7071 -0.7071 0.7071 0.7071 -10.1843 426.5683)" style="fill:#212175;" cx="509.821" cy="225.578" rx="15.178" ry="15.178"/>
			<circle style="fill:#212175;" cx="904.968" cy="426.404" r="7.589"/>
			
				<ellipse transform="matrix(0.0453 -0.999 0.999 0.0453 184.7977 431.0154)" style="fill:#212175;" cx="317.904" cy="118.823" rx="7.589" ry="7.589"/>
			
				<ellipse transform="matrix(0.1602 -0.9871 0.9871 0.1602 1201.8309 1687.0486)" style="fill:#212175;" cx="1592.36" cy="137.232" rx="7.589" ry="7.589"/>
		</g>
	</g>
	<g>
		<ellipse style="opacity:0.3;" cx="243.917" cy="414.672" rx="234.041" ry="25.395"/>
		<g>
			<g>
				<path style="fill:#FFFFFF;" d="M398.227,125.444l61.896-31.54l-3.634,69.374L398.227,125.444z M456.887,98.887l-52.727,26.867
					l49.631,32.229L456.887,98.887z"/>
			</g>
			<g>
				<path style="fill:#45C4C4;" d="M388.856,131.885c-3.472-6.814-0.763-15.151,6.051-18.623c6.813-3.472,15.151-0.763,18.623,6.051
					c3.472,6.813,0.763,15.151-6.05,18.623C400.666,141.408,392.328,138.699,388.856,131.885z"/>
				<path style="opacity:0.5;" d="M398.556,136.979c-1.861-3.566-2.316-7.914-0.711-11.718c1.959-4.641,6.363-7.782,11.335-8.177
					c-3.491-3.273-8.783-4.195-13.293-1.897c-5.75,2.93-8.037,9.967-5.107,15.718C392.411,134.103,395.313,136.226,398.556,136.979z
					"/>
			</g>
			<g>
				
					<ellipse transform="matrix(0.0712 -0.9975 0.9975 0.0712 329.7009 546.8715)" style="fill:#ED770C;" cx="458.505" cy="96.396" rx="13.846" ry="13.846"/>
				<path style="opacity:0.3;" d="M455.868,107.776c-1.861-3.566-2.316-7.914-0.711-11.718c1.959-4.641,6.363-7.782,11.335-8.177
					c-3.491-3.273-8.783-4.195-13.293-1.897c-5.75,2.93-8.037,9.967-5.107,15.718C449.723,104.9,452.625,107.023,455.868,107.776z"
					/>
			</g>
			<g>
				
					<ellipse transform="matrix(0.9433 -0.332 0.332 0.9433 -27.5136 160.1933)" style="fill:#FF5959;" cx="455.14" cy="160.631" rx="13.846" ry="13.846"/>
				<path style="opacity:0.5;" d="M452.503,172.011c-1.861-3.565-2.316-7.914-0.71-11.718c1.959-4.641,6.363-7.781,11.335-8.177
					c-3.491-3.273-8.783-4.195-13.293-1.897c-5.75,2.93-8.037,9.967-5.107,15.718C446.358,169.135,449.26,171.258,452.503,172.011z"
					/>
			</g>
		</g>
		<g>
			<g>
				<g>
					<g>
						<path style="fill:#FFFFFF;" d="M383.486,220.942v1.714c0,1.24-1.005,2.245-2.245,2.245h-18.184
							c-1.24,0-2.245-1.005-2.245-2.245v-1.714H383.486z"/>
						<path style="opacity:0.8;fill:#FFFFFF;" d="M362.529,316.511c0,2.656,1.079,5.058,2.817,6.801
							c1.738,1.743,4.145,2.818,6.801,2.818c5.316,0,9.623-4.307,9.623-9.619l-0.078-5.634l-0.526-36.976l-0.512-50.609h-17.01
							l-0.244,17.25l-0.272,33.779L362.529,316.511z"/>
						<g>
							<g>
								<path style="fill:#ED770C;" d="M379.28,274.247c0,0-4.458,1.779-8.15,0.88c-3.692-0.899-5.961-1.438-7.997-0.814
									c0,0,1.182,3.086,7.43,3.133C376.81,277.494,379.28,274.247,379.28,274.247z"/>
								<path style="opacity:0.5;" d="M379.28,274.247c0,0-4.458,1.779-8.15,0.88c-3.692-0.899-5.961-1.438-7.997-0.814
									c0,0,1.182,3.086,7.43,3.133C376.81,277.494,379.28,274.247,379.28,274.247z"/>
								<path style="fill:#ED770C;" d="M362.529,316.511c0,2.656,1.079,5.058,2.817,6.801c1.738,1.743,4.145,2.818,6.801,2.818
									c5.316,0,9.623-4.307,9.623-9.619l-0.604-42.61c-0.632,0.046-1.259,0.161-1.886,0.346c-0.004,0-0.004,0-0.009,0.005
									c-0.415,0.12-0.816,0.258-1.218,0.406c-0.004,0-0.004,0-0.009,0c-2.578,0.941-4.911,2.19-7.806,2.047
									c-2.577-0.124-5.04-0.977-7.106-2.388c0,0,0,0.005-0.005,0.005L362.529,316.511z"/>
							</g>
						</g>
						<path style="opacity:0.3;" d="M362.529,316.511c0,2.656,1.079,5.058,2.817,6.801c1.738,1.743,4.145,2.818,6.801,2.818
							c5.316,0,9.623-4.307,9.623-9.619l-0.078-5.634c-17.13-8.244-17.854-64.908-18.292-70.336l-0.272,33.779L362.529,316.511z"/>
						<g>
							<path style="fill:#FFFFFF;" d="M365.009,224.674h14.282l0.492,49.246l0.526,36.976l0.078,5.634
								c0,4.522-3.697,8.216-8.24,8.216c-2.204,0-4.271-0.856-5.822-2.411c-1.556-1.56-2.414-3.629-2.414-5.824l0.599-42.171
								l0.272-33.779L365.009,224.674 M363.645,223.291l-0.244,17.25l-0.272,33.779l-0.599,42.191c0,2.656,1.079,5.058,2.817,6.801
								c1.738,1.743,4.145,2.818,6.801,2.818c5.316,0,9.623-4.307,9.623-9.619l-0.078-5.634l-0.526-36.976l-0.512-50.609H363.645
								L363.645,223.291z"/>
						</g>
						<path style="opacity:0.7;fill:#FFFFFF;" d="M376.107,279.795c0,8.759,0.45,15.86,1.005,15.86c0.555,0,1.005-7.101,1.005-15.86
							s-0.45-15.86-1.005-15.86C376.557,263.935,376.107,271.036,376.107,279.795z"/>
					</g>
					<g>
						<path style="fill:#FFFFFF;" d="M348.215,220.942v1.714c0,1.24-1.005,2.245-2.245,2.245h-18.183
							c-1.24,0-2.245-1.005-2.245-2.245v-1.714H348.215z"/>
						<path style="opacity:0.8;fill:#FFFFFF;" d="M327.259,316.512c0,2.656,1.079,5.058,2.815,6.801
							c1.739,1.743,4.148,2.818,6.804,2.818c5.316,0,9.623-4.31,9.623-9.619l-0.081-5.637l-0.523-36.977l-0.203-20.196l-0.31-30.412
							h-17.009l-0.247,17.249l-0.111,13.657l-0.162,20.122L327.259,316.512z"/>
						<g>
							<g>
								<path style="fill:#45C4C4;" d="M344.009,254.027c0,0-4.458,1.779-8.15,0.88c-3.692-0.899-5.961-1.438-7.997-0.814
									c0,0,1.182,3.085,7.429,3.133C341.539,257.273,344.009,254.027,344.009,254.027z"/>
								<path style="opacity:0.5;" d="M344.009,254.027c0,0-4.458,1.779-8.15,0.88c-3.692-0.899-5.961-1.438-7.997-0.814
									c0,0,1.182,3.085,7.429,3.133C341.539,257.273,344.009,254.027,344.009,254.027z"/>
								<path style="fill:#45C4C4;" d="M327.259,316.512c0,2.656,1.079,5.058,2.815,6.801c1.739,1.743,4.148,2.818,6.804,2.818
									c5.316,0,9.623-4.31,9.623-9.619l-0.081-5.637l-0.523-36.977l-0.203-20.196c-0.564,0.048-1.124,0.158-1.684,0.324
									c-0.004,0-0.004,0-0.011,0.004c-0.413,0.118-0.814,0.258-1.216,0.405c-0.004,0-0.004,0-0.011,0
									c-2.575,0.94-4.911,2.192-7.806,2.048c-2.513-0.122-4.918-0.939-6.948-2.288l-0.162,20.122L327.259,316.512z"/>
							</g>
						</g>
						<path style="opacity:0.5;" d="M327.258,316.511c0,2.656,1.079,5.058,2.817,6.801c1.738,1.743,4.145,2.818,6.801,2.818
							c5.316,0,9.623-4.307,9.623-9.619l-0.078-5.634c-17.13-8.244-17.854-64.908-18.292-70.336l-0.272,33.779L327.258,316.511z"/>
						<g>
							<path style="fill:#FFFFFF;" d="M329.738,224.674h14.283l0.492,49.246l0.526,36.976l0.078,5.634
								c0,4.522-3.696,8.216-8.24,8.216c-2.204,0-4.271-0.856-5.822-2.411c-1.556-1.56-2.414-3.629-2.414-5.824l0.599-42.171
								l0.272-33.779L329.738,224.674 M328.374,223.291l-0.244,17.25l-0.272,33.779l-0.599,42.191c0,2.656,1.079,5.058,2.817,6.801
								c1.738,1.743,4.145,2.818,6.801,2.818c5.316,0,9.623-4.307,9.623-9.619l-0.078-5.634l-0.526-36.976l-0.512-50.609H328.374
								L328.374,223.291z"/>
						</g>
						<path style="opacity:0.7;fill:#FFFFFF;" d="M340.837,279.795c0,8.759,0.45,15.86,1.005,15.86c0.555,0,1.005-7.101,1.005-15.86
							s-0.45-15.86-1.005-15.86C341.286,263.935,340.837,271.036,340.837,279.795z"/>
					</g>
					<g>
						<path style="fill:#FFFFFF;" d="M312.944,220.942v1.714c0,1.24-1.005,2.245-2.245,2.245h-18.184
							c-1.24,0-2.245-1.005-2.245-2.245v-1.714H312.944z"/>
						<path style="opacity:0.8;fill:#FFFFFF;" d="M291.986,316.509c0,0.56,0.051,1.114,0.144,1.645
							c0.338,1.998,1.301,3.78,2.673,5.16c1.739,1.739,4.146,2.817,6.805,2.817c4.75,0,8.703-3.449,9.486-7.984
							c0.086-0.532,0.136-1.078,0.136-1.638l-0.079-5.634l-0.525-36.974l-0.518-50.607H293.1l-0.245,17.247l-0.266,33.776
							L291.986,316.509z"/>
						<g>
							<g>
								<path style="fill:#FF5959;" d="M308.739,285.746c0,0-4.458,1.779-8.15,0.88c-3.692-0.899-5.961-1.438-7.997-0.814
									c0,0,1.182,3.086,7.43,3.133S308.739,285.746,308.739,285.746z"/>
								<path style="opacity:0.5;" d="M308.739,285.746c0,0-4.458,1.779-8.15,0.88c-3.692-0.899-5.961-1.438-7.997-0.814
									c0,0,1.182,3.086,7.43,3.133S308.739,285.746,308.739,285.746z"/>
								<path style="fill:#FF5959;" d="M292.13,318.155c0.338,1.998,1.301,3.78,2.673,5.16c1.739,1.739,4.146,2.817,6.805,2.817
									c4.75,0,8.703-3.449,9.486-7.984l-0.467-32.749c-0.633,0.043-1.265,0.158-1.89,0.345c0,0,0,0-0.007,0.007
									c-0.417,0.115-0.819,0.258-1.214,0.402c-0.007,0-0.007,0-0.014,0c-2.573,0.942-4.908,2.192-7.804,2.048
									c-2.58-0.122-5.038-0.977-7.107-2.386L292.13,318.155z"/>
							</g>
						</g>
						<path style="opacity:0.5;" d="M291.987,316.511c0,2.656,1.079,5.058,2.817,6.801c1.738,1.743,4.145,2.818,6.801,2.818
							c5.316,0,9.623-4.307,9.623-9.619l-0.078-5.634c-17.13-8.244-17.854-64.908-18.292-70.336l-0.272,33.779L291.987,316.511z"/>
						<g>
							<path style="fill:#FFFFFF;" d="M294.467,224.674h14.282l0.492,49.246l0.526,36.976l0.078,5.634
								c0,4.522-3.697,8.216-8.24,8.216c-2.204,0-4.271-0.856-5.822-2.411c-1.557-1.56-2.414-3.629-2.414-5.824l0.599-42.171
								l0.272-33.779L294.467,224.674 M293.103,223.291l-0.244,17.25l-0.272,33.779l-0.599,42.191c0,2.656,1.079,5.058,2.817,6.801
								c1.738,1.743,4.145,2.818,6.801,2.818c5.316,0,9.623-4.307,9.623-9.619l-0.078-5.634l-0.526-36.976l-0.512-50.609H293.103
								L293.103,223.291z"/>
						</g>
						<path style="opacity:0.7;fill:#FFFFFF;" d="M305.566,279.795c0,8.759,0.45,15.86,1.005,15.86c0.555,0,1.005-7.101,1.005-15.86
							s-0.45-15.86-1.005-15.86C306.016,263.935,305.566,271.036,305.566,279.795z"/>
					</g>
				</g>
				<g>
					<path style="fill:#BBBCBF;" d="M272.523,326.13h128.71c4.716,0,8.539,3.823,8.539,8.539v4.288H263.984v-4.288
						C263.984,329.953,267.807,326.13,272.523,326.13z"/>
					<g>
						
							<rect x="390.901" y="229.364" transform="matrix(-1 -1.224647e-16 1.224647e-16 -1 787.3379 556.993)" style="fill:#BBBCBF;" width="5.537" height="98.266"/>
						
							<rect x="277.319" y="229.364" transform="matrix(-1 -1.224647e-16 1.224647e-16 -1 560.1755 556.993)" style="fill:#BBBCBF;" width="5.537" height="98.266"/>
					</g>
					
						<rect x="266.42" y="241.022" transform="matrix(-1 -1.224647e-16 1.224647e-16 -1 673.7567 488.6662)" style="fill:#BBBCBF;" width="140.917" height="6.623"/>
				</g>
			</g>
			<g>
				<g>
					<path style="opacity:0.8;fill:#FFFFFF;" d="M232.716,205.991c8.876,0,20.91,0,20.91,0s12.062,0,20.938,0
						c6.739,0,16.528-0.885,17.038-12.062c0.057-1.26,0-2.662-0.205-4.212c-0.361-2.831-1.182-6.158-2.583-10.037
						c-1.989-5.542-4.332-11.821-6.76-18.347c-8.424-22.587-17.958-48.176-17.958-56.776c0-11.099,0-29.821,0-29.821h2.732
						c0.906,0,1.678-0.736,1.678-1.649c0-0.906,0.021-3.801,0.021-3.801h-29.687c0,0-0.064,2.895-0.064,3.801
						c0,0.913,0.743,1.649,1.649,1.649h2.732c0,0,0,18.723,0,29.821c0,5.628-4.077,18.525-9.259,33.099
						c-2.477,6.972-5.21,14.326-7.864,21.455c-2.732,7.326-5.38,14.405-7.595,20.57
						C209.562,204.427,223.839,205.991,232.716,205.991z"/>
					<path style="fill:#FFFFFF;" d="M269.005,68.532v3.985c0,1.454-1.178,2.632-2.632,2.632h-25.49
						c-1.454,0-2.632-1.178-2.632-2.632v-3.985H269.005z"/>
					<g>
						<g>
							<path style="fill:#4949E5;" d="M268.814,158.03c0,0-9.85,4.005-16.852,2.678c-7.001-1.327-17.65-4.512-24.56-1.924
								c0,0,6.43,12.242,22.57,10.989C266.112,168.52,268.814,158.03,268.814,158.03z"/>
							<path style="opacity:0.5;" d="M268.814,158.03c0,0-9.85,4.005-16.852,2.678c-7.001-1.327-17.65-4.512-24.56-1.924
								c0,0,6.43,12.242,22.57,10.989C266.112,168.52,268.814,158.03,268.814,158.03z"/>
						</g>
						<path style="fill:#4949E5;" d="M232.714,205.994c8.876,0,20.91,0,20.91,0s12.062,0,20.938,0
							c6.739,0,16.528-0.885,17.038-12.062c0.17-3.581-0.623-8.253-2.789-14.249c-1.989-5.542-4.332-11.821-6.76-18.347
							l-1.727-1.678c-1.041-0.495-2.138-0.871-3.221-1.175c-0.375-0.106-0.75-0.205-1.132-0.29
							c-2.662-0.623-5.443-0.807-8.055,0.099c-0.177,0.064-0.354,0.127-0.531,0.191c-0.312,0.128-0.623,0.255-0.927,0.39
							c-2.272,0.977-4.417,2.293-6.71,3.214c-3.051,1.225-6.286,1.855-9.556,2.102c-4.113,0.311-8.445,0-12.557-1.005
							c-2.117-0.524-4.176-1.225-6.109-2.13c-1.38-0.637-2.782-1.402-4.12-2.272l-1.373,0.333c-2.732,7.319-5.38,14.398-7.595,20.57
							C209.56,204.43,223.837,205.994,232.714,205.994z"/>
					</g>
					<path style="fill:#FFFFFF;" d="M245.986,72.12h15.274v2.62v29.812c0,9.129,9.237,33.905,18.17,57.865
						c2.439,6.541,4.742,12.72,6.717,18.22c1.906,5.291,2.788,9.718,2.624,13.16c-0.309,6.741-4.293,9.365-14.211,9.365h-20.937
						h-20.908c-4.564,0-10.126-0.46-12.65-4.047c-2.423-3.444-2.066-9.834,1.035-18.479c1.974-5.499,4.278-11.677,6.716-18.219
						c8.933-23.96,18.17-48.736,18.17-57.865V74.741V72.12 M238.835,69.289c0,0-0.061,2.892-0.061,3.801c0,0.91,0.74,1.65,1.65,1.65
						h2.731c0,0,0,18.718,0,29.812c0,11.094-15.845,50.407-24.72,75.128c-8.875,24.747,5.405,26.313,14.28,26.313s20.908,0,20.908,0
						s12.062,0,20.937,0c6.742,0,16.527-0.882,17.039-12.062c0.171-3.584-0.626-8.249-2.788-14.251
						c-8.875-24.721-24.72-64.034-24.72-75.128c0-11.094,0-29.812,0-29.812h2.731c0.91,0,1.678-0.741,1.678-1.65
						c0-0.91,0.025-3.801,0.025-3.801H238.835L238.835,69.289z"/>
					<path style="opacity:0.5;" d="M232.716,205.991c8.876,0,20.91,0,20.91,0s12.062,0,20.938,0c6.739,0,16.528-0.885,17.038-12.062
						c0.057-1.26,0-2.662-0.205-4.212c-47.595,6.101-57.307-50.936-57.498-52.062c-2.477,6.972-5.21,14.326-7.864,21.455
						c-2.732,7.326-5.38,14.405-7.595,20.57C209.562,204.427,223.839,205.991,232.716,205.991z"/>
					<path style="opacity:0.7;fill:#FFFFFF;" d="M266.604,146.732c4.272,11.965,8.631,21.346,9.736,20.951
						c1.104-0.394-1.464-10.414-5.736-22.379c-4.272-11.965-8.631-21.346-9.736-20.951
						C259.764,124.747,262.332,134.766,266.604,146.732z"/>
				</g>
				<g>
					<path style="opacity:0.8;fill:#FFFFFF;" d="M46.237,248.667c-0.085,5.252,0.559,10.143,1.734,14.695
						c0.368,1.437,0.792,2.846,1.267,4.212l0.007,0.007c0.354,1.04,0.743,2.06,1.154,3.058c0,0.007,0,0.007,0.007,0.007
						c0.304,0.75,0.63,1.486,0.963,2.215c0.113,0.248,0.226,0.488,0.347,0.729c0.227,0.481,0.46,0.955,0.701,1.422
						c0.12,0.241,0.241,0.474,0.368,0.708c1.104,2.095,2.315,4.091,3.596,5.981c0,0.007,0.007,0.007,0.007,0.007
						c0.319,0.467,0.637,0.934,0.97,1.387c0,0,0,0,0,0.007c0,0,0.007,0,0.007,0.007v0.007c0.113,0.149,0.219,0.297,0.326,0.446
						c0,0.007,0.007,0.007,0.007,0.007c0.29,0.404,0.588,0.8,0.892,1.196c0,0.007,0,0.007,0.007,0.007
						c0.248,0.326,0.496,0.651,0.75,0.963c0.049,0.071,0.099,0.142,0.155,0.205c0.156,0.198,0.311,0.389,0.467,0.58
						c0.276,0.333,0.545,0.666,0.821,0.991c0.007,0.007,0.007,0.007,0.014,0.014c3.029,3.122,8.367,7.326,17.13,10.653
						c0.007,0,0.007,0,0.014,0.007c8.14,3.079,19.239,5.408,34.196,5.408c14.971,0,26.077-2.336,34.217-5.422h0.007
						c8.763-3.327,14.093-7.531,17.116-10.653c0.021-0.014,0.028-0.028,0.043-0.042c0.106-0.128,0.212-0.262,0.326-0.389
						c0.007-0.014,0.014-0.028,0.028-0.036c0.311-0.382,0.623-0.772,0.941-1.161c0.134-0.177,0.276-0.354,0.418-0.531
						c0.021-0.036,0.049-0.071,0.085-0.113c0.475-0.609,0.941-1.232,1.402-1.869c0.057-0.085,0.121-0.17,0.184-0.255
						c0-0.007,0.007-0.007,0.007-0.014c0.007-0.007,0.007-0.014,0.007-0.014h0.007c0.177-0.255,0.361-0.51,0.538-0.765
						c0.432-0.623,0.856-1.253,1.267-1.897c0.007,0,0.007-0.007,0.007-0.007c0.213-0.333,0.425-0.672,0.637-1.012
						c0.227-0.361,0.446-0.729,0.666-1.097c0.198-0.333,0.389-0.658,0.573-0.991c0.205-0.354,0.404-0.715,0.595-1.076
						c0.177-0.319,0.347-0.637,0.517-0.963c0.042-0.085,0.085-0.177,0.134-0.269c0.163-0.318,0.326-0.644,0.481-0.97
						c0.184-0.368,0.361-0.743,0.538-1.126c0.234-0.509,0.467-1.019,0.687-1.536c0.149-0.354,0.297-0.708,0.439-1.069
						c0.163-0.397,0.319-0.793,0.474-1.197c0.015-0.049,0.036-0.099,0.057-0.155c0.333-0.892,0.651-1.805,0.941-2.725
						c0.113-0.347,0.22-0.694,0.319-1.048c0.163-0.531,0.311-1.076,0.453-1.621c0.057-0.212,0.113-0.418,0.163-0.63
						c0.17-0.673,0.326-1.345,0.467-2.032c0.05-0.227,0.092-0.453,0.135-0.679c0.092-0.446,0.177-0.892,0.248-1.345
						c0.071-0.41,0.142-0.821,0.198-1.239c0.021-0.134,0.042-0.276,0.056-0.417c0.128-0.899,0.234-1.805,0.319-2.732
						c0.007-0.078,0.014-0.149,0.021-0.226c0.028-0.354,0.056-0.722,0.078-1.083c0.007-0.064,0.007-0.127,0.014-0.198
						c0.014-0.213,0.021-0.425,0.028-0.644c0.028-0.467,0.049-0.941,0.057-1.416c0.014-0.481,0.021-0.963,0.021-1.444
						c0-2.279-0.135-4.622-0.418-7.029c-1.465-11.913-7.213-20.874-14.369-27.86c-0.686-0.665-1.38-1.317-2.081-1.947
						c-0.701-0.63-1.416-1.246-2.138-1.84c-1.288-1.062-2.598-2.081-3.921-3.044c-1.762-1.288-3.546-2.492-5.309-3.631
						c-0.446-0.283-0.885-0.559-1.324-0.835c-1.847-1.154-3.674-2.237-5.429-3.256c-1.408-0.814-2.775-1.585-4.077-2.329
						c-0.488-0.276-0.97-0.552-1.437-0.821c-0.311-0.184-0.623-0.361-0.927-0.531c-0.156-0.092-0.305-0.177-0.453-0.262
						c-0.304-0.177-0.595-0.347-0.885-0.517c-0.149-0.085-0.29-0.17-0.432-0.255c-0.573-0.333-1.126-0.665-1.649-0.991
						c-0.39-0.248-0.772-0.488-1.14-0.722c-0.488-0.318-0.955-0.63-1.387-0.934c-2.293-1.621-3.815-3.122-4.204-4.629
						c-0.078-0.305-0.149-0.68-0.212-1.125c-0.042-0.297-0.078-0.623-0.113-0.977c-0.049-0.538-0.092-1.132-0.134-1.791
						c-0.035-0.659-0.064-1.373-0.085-2.145c-0.007-0.326-0.014-0.658-0.021-1.005c-0.05-2.449-0.043-5.351,0.021-8.586v-0.028
						c0.014-0.934,0.036-1.897,0.064-2.881c0.057-2.322,0.135-4.785,0.234-7.326v-0.007c0.021-0.602,0.05-1.218,0.071-1.834
						c0.043-1.225,0.099-2.477,0.156-3.737c0.028-0.63,0.057-1.267,0.085-1.904c0.021-0.517,0.049-1.027,0.071-1.543
						c0.042-1.026,0.092-2.053,0.149-3.086c0.05-1.033,0.106-2.074,0.156-3.114c0.078-1.564,0.163-3.122,0.248-4.672
						c0.085-1.557,0.17-3.1,0.262-4.636c0.17-3.058,0.354-6.067,0.531-8.955c0.028-0.474,0.056-0.955,0.092-1.43
						c0.028-0.467,0.057-0.941,0.085-1.401c0.078-1.168,0.149-2.307,0.219-3.412c0.014-0.219,0.028-0.439,0.043-0.658
						c0.014-0.276,0.036-0.545,0.05-0.814c0.035-0.545,0.07-1.076,0.106-1.6c0.014-0.262,0.028-0.524,0.049-0.779
						c0.014-0.205,0.028-0.411,0.042-0.609c0.021-0.41,0.049-0.807,0.078-1.203c0.021-0.39,0.05-0.779,0.078-1.161
						c0.035-0.573,0.071-1.125,0.113-1.67c0.007-0.177,0.021-0.361,0.036-0.538c0.021-0.347,0.043-0.693,0.071-1.033
						c0.085-1.189,0.162-2.286,0.226-3.277c0.035-0.432,0.064-0.835,0.085-1.225c0.028-0.389,0.056-0.75,0.078-1.097
						c0.007-0.17,0.021-0.34,0.035-0.503c0.107-1.458,0.177-2.477,0.213-2.966c0.021-0.219,0.028-0.333,0.028-0.333H94.611
						c0,0,0.396,5.408,0.935,13.506c0.092,1.352,0.184,2.775,0.283,4.261c0.127,1.989,0.262,4.077,0.396,6.257
						c0.234,3.808,0.481,7.864,0.715,12.005c0.035,0.623,0.071,1.253,0.099,1.89c0.057,0.92,0.106,1.84,0.156,2.768
						c0.036,0.623,0.064,1.253,0.099,1.883c0.106,1.947,0.205,3.9,0.29,5.832c0.014,0.149,0.021,0.297,0.028,0.446
						c0.064,1.408,0.127,2.803,0.191,4.176c0.071,1.642,0.141,3.263,0.205,4.856c0.028,0.878,0.064,1.741,0.092,2.591
						c0.248,6.972,0.368,13.208,0.269,17.766c-0.007,0.531-0.021,1.048-0.043,1.529c-0.007,0.248-0.021,0.488-0.028,0.722
						c-0.014,0.29-0.028,0.573-0.043,0.842c-0.035,0.673-0.085,1.281-0.141,1.819c-0.014,0.106-0.021,0.212-0.036,0.311v0.007
						c-0.07,0.651-0.163,1.189-0.269,1.593c-0.021,0.071-0.042,0.142-0.071,0.213c-0.021,0.078-0.049,0.149-0.078,0.219
						c-0.007,0.007-0.007,0.014-0.007,0.021c-0.057,0.142-0.121,0.276-0.198,0.411c-0.035,0.071-0.078,0.141-0.12,0.212
						c-0.014,0.021-0.028,0.042-0.035,0.064c-0.078,0.128-0.163,0.248-0.255,0.375c-1.055,1.444-3.015,2.916-5.592,4.53
						c-0.127,0.078-0.255,0.156-0.389,0.24c-0.524,0.326-1.069,0.659-1.642,0.991c-0.141,0.085-0.283,0.17-0.432,0.255
						c-0.871,0.51-1.784,1.033-2.739,1.578c-0.198,0.113-0.403,0.234-0.609,0.347c-1.409,0.8-2.895,1.643-4.431,2.534
						c-0.701,0.404-1.409,0.821-2.131,1.246c-0.007,0-0.007,0-0.007,0c-0.722,0.439-1.451,0.878-2.187,1.323
						c-0.043,0.021-0.078,0.05-0.12,0.078c-0.326,0.198-0.651,0.403-0.984,0.609c-0.064,0.036-0.127,0.078-0.191,0.12
						c-0.389,0.248-0.778,0.496-1.175,0.75c-0.531,0.34-1.069,0.687-1.6,1.048c-0.092,0.057-0.177,0.12-0.269,0.177
						c-0.396,0.269-0.793,0.538-1.182,0.814c-0.17,0.113-0.34,0.227-0.503,0.34c-0.05,0.036-0.099,0.071-0.149,0.106
						c-0.687,0.482-1.373,0.977-2.06,1.486c-0.779,0.573-1.557,1.168-2.329,1.784c-0.729,0.588-1.451,1.182-2.166,1.791
						l-1.062,0.934c-0.155,0.142-0.304,0.276-0.46,0.418c-0.326,0.297-0.651,0.601-0.977,0.906
						c-0.326,0.311-0.644,0.623-0.963,0.941c-0.233,0.226-0.46,0.46-0.693,0.694c-0.163,0.17-0.333,0.34-0.496,0.517
						c-0.234,0.241-0.46,0.482-0.687,0.729c-0.609,0.665-1.21,1.345-1.791,2.046c-0.29,0.34-0.566,0.687-0.85,1.033
						c0,0.007-0.007,0.014-0.014,0.021c-0.262,0.333-0.517,0.666-0.771,1.005c-0.297,0.389-0.588,0.793-0.871,1.196
						c-0.269,0.375-0.531,0.757-0.785,1.147c-0.043,0.064-0.085,0.127-0.128,0.191c-0.205,0.312-0.403,0.63-0.602,0.949
						c-0.538,0.857-1.048,1.741-1.536,2.647c-0.156,0.305-0.318,0.609-0.474,0.921c-0.269,0.524-0.524,1.069-0.771,1.614
						c-0.128,0.276-0.248,0.552-0.368,0.828c-0.368,0.85-0.708,1.727-1.02,2.619c-0.07,0.205-0.141,0.411-0.212,0.616
						c-0.262,0.765-0.503,1.55-0.722,2.35c-0.064,0.234-0.12,0.467-0.184,0.708c-0.142,0.524-0.269,1.048-0.375,1.585
						c-0.064,0.262-0.12,0.531-0.17,0.8c-0.042,0.205-0.078,0.418-0.12,0.623c-0.028,0.12-0.05,0.24-0.064,0.361
						c-0.092,0.495-0.17,0.998-0.234,1.5c-0.049,0.276-0.085,0.559-0.12,0.842c-0.141,1.204-0.248,2.393-0.311,3.561
						c-0.035,0.588-0.064,1.168-0.078,1.741C46.244,248.066,46.237,248.37,46.237,248.667z"/>
					<g>
						<path style="fill:#FF5959;" d="M144.951,226.075c0,0-21.282,8.652-36.408,5.786c-15.126-2.866-38.133-9.749-53.061-4.158
							c0,0,13.891,26.449,48.762,23.743C139.114,248.739,144.951,226.075,144.951,226.075z"/>
						<path style="opacity:0.5;" d="M144.951,226.075c0,0-21.282,8.652-36.408,5.786c-15.126-2.866-38.133-9.749-53.061-4.158
							c0,0,13.891,26.449,48.762,23.743C139.114,248.739,144.951,226.075,144.951,226.075z"/>
						<path style="fill:#FF5959;" d="M67.961,289.673c0.425,0.425,0.85,0.842,1.274,1.246c0.411,0.396,0.828,0.786,1.246,1.168
							c0.007,0.007,0.014,0.007,0.021,0.014c0.418,0.389,0.842,0.771,1.267,1.139c2.109,1.855,4.204,3.504,6.165,4.941
							c0.007,0,0.007,0,0.014,0.007c8.14,3.079,19.239,5.408,34.196,5.408c14.971,0,26.077-2.336,34.217-5.422h0.007
							c2.046-1.5,4.226-3.227,6.434-5.188c0.559-0.496,1.118-1.006,1.678-1.529s1.118-1.069,1.678-1.621
							c0.835-0.828,1.642-1.663,2.414-2.506c0.233-0.255,0.46-0.51,0.693-0.765c0.389-0.432,0.764-0.863,1.133-1.302
							c0.304-0.347,0.595-0.701,0.892-1.055c0.043-0.057,0.085-0.113,0.134-0.17c0.29-0.361,0.58-0.729,0.871-1.09
							c0.304-0.396,0.602-0.786,0.899-1.182c0.29-0.396,0.58-0.793,0.864-1.189c0.255-0.354,0.503-0.715,0.743-1.076
							c1.26-1.847,2.386-3.723,3.391-5.634c0.007-0.014,0.014-0.035,0.028-0.049c0.24-0.46,0.474-0.927,0.701-1.387
							c0.241-0.481,0.467-0.97,0.687-1.451c0.219-0.488,0.432-0.977,0.637-1.465c0.205-0.488,0.403-0.977,0.594-1.472
							c0.184-0.488,0.368-0.984,0.538-1.479c0.156-0.446,0.304-0.892,0.446-1.338c0.049-0.156,0.099-0.304,0.149-0.46
							c0.12-0.389,0.234-0.779,0.347-1.175c0-0.007,0.007-0.021,0.007-0.035c0.128-0.439,0.24-0.878,0.354-1.317
							c0.142-0.566,0.276-1.14,0.404-1.72c0.085-0.396,0.17-0.8,0.24-1.203c0.049-0.248,0.099-0.495,0.141-0.75
							c0.064-0.375,0.128-0.75,0.184-1.125c0.071-0.467,0.142-0.941,0.191-1.409c0.021-0.113,0.035-0.226,0.043-0.339
							c0.042-0.354,0.085-0.708,0.113-1.062c0.028-0.276,0.057-0.552,0.071-0.829c0.014-0.092,0.021-0.191,0.028-0.29
							c0.028-0.361,0.05-0.722,0.071-1.083c0.007-0.135,0.014-0.269,0.021-0.411c0.014-0.361,0.028-0.722,0.036-1.083
							c0.071-2.626-0.057-5.295-0.375-8.006c-0.042-0.354-0.092-0.701-0.141-1.048c-0.057-0.368-0.113-0.729-0.177-1.09
							c-0.05-0.269-0.099-0.545-0.149-0.814c-0.042-0.227-0.092-0.453-0.142-0.68c-0.049-0.227-0.099-0.453-0.149-0.673
							c-0.057-0.241-0.113-0.481-0.177-0.722c-0.099-0.396-0.198-0.786-0.311-1.175c-0.12-0.425-0.241-0.843-0.382-1.26
							c-0.092-0.304-0.191-0.609-0.297-0.906c-0.142-0.411-0.283-0.814-0.439-1.21c-0.078-0.212-0.156-0.418-0.241-0.623
							c-0.121-0.311-0.248-0.609-0.382-0.913c-0.106-0.233-0.213-0.474-0.312-0.708c-0.127-0.276-0.255-0.545-0.382-0.814
							c-0.113-0.233-0.227-0.467-0.354-0.694c-2.237-1.069-4.608-1.89-6.951-2.541c-0.807-0.227-1.621-0.439-2.442-0.63
							c-5.755-1.338-11.764-1.741-17.406,0.219c-0.382,0.134-0.764,0.276-1.146,0.418c-0.68,0.262-1.345,0.538-2.01,0.828
							c-4.905,2.124-9.535,4.955-14.497,6.944c-6.597,2.647-13.576,4.006-20.648,4.544c-8.883,0.68-18.248,0-27.132-2.173
							c-4.573-1.125-9.011-2.647-13.187-4.594c-2.994-1.387-6.017-3.03-8.912-4.912c-0.163,0.276-0.319,0.552-0.467,0.835
							c-0.156,0.283-0.305,0.566-0.446,0.85c-0.149,0.283-0.29,0.573-0.432,0.863c-0.142,0.29-0.276,0.581-0.411,0.878
							c-0.134,0.29-0.262,0.594-0.389,0.892c-0.382,0.899-0.736,1.826-1.055,2.775c-0.106,0.312-0.213,0.63-0.311,0.956
							c-0.099,0.319-0.198,0.644-0.29,0.97c-0.177,0.63-0.347,1.267-0.496,1.925c-0.085,0.382-0.17,0.771-0.248,1.161
							c-0.134,0.666-0.248,1.338-0.347,2.025c-0.057,0.354-0.106,0.715-0.149,1.076C48.389,260.255,54.286,275.99,67.961,289.673z"
							/>
					</g>
					<path style="fill:#FFFFFF;" d="M59.347,285.737c0.049,0.071,0.099,0.142,0.155,0.205c0.156,0.198,0.311,0.389,0.467,0.58
						c0.276,0.333,0.545,0.666,0.821,0.991c0.007,0.007,0.007,0.007,0.014,0.014c3.029,3.122,8.367,7.326,17.13,10.653
						c0.007,0,0.007,0,0.014,0.007c8.14,3.079,19.239,5.408,34.196,5.408c14.971,0,26.077-2.336,34.217-5.422h0.007
						c8.763-3.327,14.093-7.531,17.116-10.653c0.021-0.014,0.028-0.028,0.043-0.042c0.106-0.128,0.212-0.262,0.326-0.389
						c0.007-0.014,0.014-0.028,0.028-0.036c0.311-0.382,0.623-0.772,0.941-1.161l-1.628-4.127c0,0-13.258,18.052-51.049,18.052
						c-37.799,0-51.05-18.052-51.05-18.052L59.347,285.737z"/>
					<path style="fill:#FFFFFF;" d="M125.572,106.809c-1.218,17.017-5.033,73.63-2.796,82.208
						c1.189,4.559,6.541,7.596,14.631,12.189c11.078,6.293,25.355,14.405,32.405,28.391c0.127,0.227,0.241,0.46,0.354,0.694
						c0.127,0.269,0.255,0.538,0.382,0.814c0.106,0.234,0.212,0.467,0.312,0.708c0.135,0.304,0.262,0.602,0.382,0.913
						c0.085,0.205,0.163,0.411,0.241,0.623c0.156,0.396,0.297,0.8,0.439,1.21c0.106,0.297,0.205,0.602,0.297,0.906
						c0.141,0.417,0.262,0.835,0.382,1.26c0.113,0.389,0.212,0.778,0.311,1.175c0.064,0.241,0.12,0.481,0.177,0.722
						c0.049,0.219,0.099,0.446,0.149,0.673c0.049,0.226,0.099,0.453,0.142,0.68c0.049,0.269,0.099,0.545,0.149,0.814
						c0.064,0.361,0.12,0.722,0.177,1.09c0.049,0.347,0.099,0.694,0.141,1.048c0.319,2.711,0.446,5.38,0.375,8.006
						c-0.007,0.361-0.021,0.722-0.036,1.083c-0.007,0.142-0.014,0.276-0.021,0.411c-0.021,0.361-0.043,0.722-0.071,1.083
						c-0.007,0.099-0.014,0.198-0.028,0.29c-0.014,0.276-0.043,0.552-0.071,0.829c-0.028,0.354-0.07,0.708-0.113,1.062
						c-0.007,0.113-0.021,0.227-0.043,0.339c-0.049,0.467-0.12,0.941-0.191,1.409c-0.057,0.375-0.12,0.75-0.184,1.125
						c-0.042,0.255-0.092,0.503-0.141,0.75c-0.071,0.404-0.156,0.807-0.24,1.203c-0.128,0.58-0.262,1.154-0.404,1.72
						c-0.113,0.439-0.226,0.878-0.354,1.317c0,0.014-0.007,0.028-0.007,0.035c-0.113,0.396-0.227,0.786-0.347,1.175
						c-0.049,0.156-0.099,0.305-0.149,0.46c-0.142,0.446-0.29,0.892-0.446,1.338c-0.17,0.495-0.354,0.991-0.538,1.479
						c-0.191,0.496-0.389,0.984-0.594,1.472c-0.205,0.488-0.417,0.977-0.637,1.465c-0.219,0.482-0.446,0.97-0.687,1.451
						c-0.226,0.46-0.46,0.927-0.701,1.387c-0.014,0.014-0.021,0.035-0.028,0.049c-1.005,1.911-2.131,3.787-3.391,5.634
						c-0.234,0.361-0.488,0.715-0.743,1.076c-0.276,0.396-0.567,0.793-0.864,1.189c-0.29,0.396-0.594,0.786-0.899,1.182
						c-0.283,0.361-0.573,0.729-0.871,1.09c-0.049,0.057-0.092,0.113-0.134,0.17c-0.29,0.354-0.588,0.701-0.892,1.055
						c-0.368,0.439-0.743,0.871-1.133,1.302c-0.226,0.255-0.46,0.51-0.693,0.765c-0.772,0.842-1.579,1.678-2.414,2.506
						c-0.559,0.552-1.118,1.097-1.678,1.621s-1.118,1.033-1.678,1.529c-2.209,1.961-4.388,3.688-6.434,5.188
						c8.763-3.327,14.093-7.531,17.116-10.653c0.021-0.014,0.028-0.028,0.043-0.042c0.106-0.128,0.212-0.262,0.326-0.389
						c0.007-0.014,0.014-0.028,0.028-0.036c0.453-0.552,0.906-1.118,1.359-1.691c0.021-0.036,0.049-0.071,0.085-0.113
						c0.475-0.609,0.941-1.232,1.402-1.869c0.057-0.085,0.121-0.17,0.184-0.255c0-0.007,0.007-0.007,0.007-0.014
						c0.007-0.007,0.007-0.014,0.007-0.014h0.007c0.177-0.255,0.361-0.51,0.538-0.765c0.432-0.623,0.856-1.253,1.267-1.897
						c0.007,0,0.007-0.007,0.007-0.007c0.213-0.333,0.425-0.672,0.637-1.012c0.227-0.361,0.446-0.729,0.666-1.097
						c0.198-0.333,0.389-0.658,0.573-0.991c0.205-0.354,0.404-0.715,0.595-1.076c0.177-0.319,0.347-0.637,0.517-0.963
						c0.042-0.085,0.085-0.177,0.134-0.269c0.163-0.318,0.326-0.644,0.481-0.97c0.184-0.368,0.361-0.743,0.538-1.126
						c0.234-0.509,0.467-1.019,0.687-1.536c0.149-0.354,0.297-0.708,0.439-1.069c0.163-0.397,0.319-0.793,0.474-1.197
						c0.015-0.049,0.036-0.099,0.057-0.155c0.333-0.892,0.651-1.805,0.941-2.725c0.113-0.347,0.22-0.694,0.319-1.048
						c0.163-0.531,0.311-1.076,0.453-1.621c0.057-0.212,0.113-0.418,0.163-0.63c0.17-0.673,0.326-1.345,0.467-2.032
						c0.05-0.227,0.092-0.453,0.135-0.679c0.092-0.446,0.177-0.892,0.248-1.345c0.071-0.41,0.142-0.821,0.198-1.239
						c0.021-0.134,0.042-0.276,0.056-0.417c0.128-0.899,0.234-1.805,0.319-2.732c0.007-0.078,0.014-0.149,0.021-0.226
						c0.028-0.354,0.056-0.722,0.078-1.083c0.007-0.064,0.007-0.127,0.014-0.198c0.014-0.213,0.021-0.425,0.028-0.644
						c0.028-0.467,0.049-0.941,0.057-1.416c0.014-0.481,0.021-0.963,0.021-1.444c0-2.279-0.135-4.622-0.418-7.029
						c-1.465-11.913-7.213-20.874-14.369-27.86c-0.686-0.665-1.38-1.317-2.081-1.947c-0.701-0.63-1.416-1.246-2.138-1.84
						c-1.288-1.062-2.598-2.081-3.921-3.044c-1.762-1.288-3.546-2.499-5.309-3.631c-0.446-0.283-0.885-0.559-1.324-0.835
						c-1.847-1.161-3.674-2.244-5.429-3.256c-1.408-0.821-2.775-1.593-4.077-2.329c-0.488-0.283-0.97-0.552-1.437-0.821
						c-0.311-0.184-0.623-0.361-0.927-0.531c-0.156-0.092-0.305-0.177-0.453-0.262c-0.304-0.177-0.595-0.347-0.885-0.517
						c-0.149-0.085-0.29-0.17-0.432-0.255c-0.573-0.339-1.126-0.665-1.649-0.991c-0.39-0.248-0.772-0.488-1.14-0.722
						c-0.488-0.318-0.955-0.63-1.387-0.934c-2.293-1.621-3.815-3.122-4.204-4.629c-0.078-0.305-0.149-0.68-0.212-1.125
						c-0.042-0.297-0.078-0.623-0.113-0.977c-0.049-0.538-0.092-1.132-0.134-1.791c-0.035-0.659-0.064-1.373-0.085-2.145
						c-0.007-0.326-0.014-0.658-0.021-1.005c-0.05-2.442-0.036-5.351,0.021-8.586v-0.028c0.021-0.934,0.043-1.897,0.064-2.881
						c0.057-2.322,0.135-4.785,0.234-7.326v-0.007c0.021-0.602,0.05-1.218,0.071-1.834c0.049-1.225,0.099-2.477,0.156-3.737
						c0.028-0.63,0.057-1.267,0.085-1.904c0.021-0.517,0.049-1.027,0.071-1.543c0.042-1.026,0.092-2.053,0.149-3.086
						c0.05-1.033,0.106-2.074,0.156-3.114c0.078-1.564,0.163-3.122,0.248-4.672c0.085-1.557,0.17-3.1,0.262-4.636
						c0.17-3.058,0.354-6.067,0.531-8.955c0.028-0.474,0.056-0.955,0.092-1.43c0.028-0.467,0.057-0.941,0.085-1.401
						c0.071-1.168,0.141-2.307,0.219-3.412c0.014-0.219,0.028-0.439,0.043-0.658c0.014-0.276,0.036-0.545,0.05-0.814
						c0.035-0.545,0.07-1.076,0.106-1.6c0.014-0.262,0.028-0.524,0.049-0.779c0.014-0.205,0.028-0.411,0.042-0.609
						c0.021-0.41,0.049-0.807,0.078-1.203c0.021-0.39,0.05-0.779,0.078-1.161c0.035-0.573,0.071-1.125,0.113-1.67
						c0.007-0.177,0.021-0.361,0.036-0.538c0.021-0.347,0.043-0.693,0.071-1.033c0.078-1.189,0.156-2.286,0.226-3.277
						c0.028-0.432,0.057-0.835,0.085-1.225c0.028-0.389,0.049-0.75,0.078-1.097c0.007-0.17,0.021-0.34,0.035-0.503
						c0.099-1.458,0.17-2.477,0.213-2.966c0.014-0.219,0.021-0.333,0.021-0.333h-4.007c-0.085,1.274-0.191,2.548-0.361,3.815
						H125.572z"/>
					<path style="fill:#FFFFFF;" d="M46.237,248.667c-0.078,5.252,0.566,10.143,1.734,14.695c0.368,1.437,0.792,2.846,1.267,4.212
						l0.007,0.007c0.361,1.033,0.75,2.06,1.154,3.058c0,0.007,0,0.007,0.007,0.007c0.311,0.75,0.63,1.486,0.963,2.215
						c0.113,0.248,0.226,0.488,0.347,0.729c0.227,0.481,0.46,0.955,0.701,1.422c0.12,0.241,0.241,0.474,0.368,0.708
						c1.104,2.095,2.315,4.091,3.596,5.981c0,0.007,0.007,0.007,0.007,0.007c0.319,0.467,0.637,0.934,0.97,1.387c0,0,0,0,0,0.007
						c0,0,0.007,0,0.007,0.007v0.007c0.113,0.149,0.219,0.297,0.326,0.446c0,0.007,0.007,0.007,0.007,0.007
						c0.29,0.404,0.588,0.8,0.892,1.196c0,0.007,0,0.007,0.007,0.007c0.297,0.396,0.602,0.786,0.906,1.168
						c0.156,0.198,0.311,0.389,0.467,0.58c0.276,0.333,0.545,0.666,0.821,0.991c0.007,0.007,0.007,0.007,0.014,0.014
						c3.029,3.122,8.367,7.326,17.13,10.653c-1.961-1.437-4.056-3.086-6.165-4.941c-0.425-0.368-0.849-0.75-1.267-1.139
						c-0.007-0.007-0.014-0.007-0.021-0.014c-0.418-0.382-0.835-0.772-1.246-1.168c-0.424-0.403-0.849-0.821-1.274-1.246
						c-13.675-13.683-19.572-29.418-17.519-46.767c0.042-0.361,0.092-0.722,0.149-1.076c0.099-0.687,0.213-1.359,0.347-2.025
						c0.078-0.389,0.163-0.778,0.248-1.161c0.149-0.658,0.319-1.295,0.496-1.925c0.092-0.326,0.184-0.651,0.29-0.97
						c0.099-0.326,0.205-0.644,0.311-0.956c0.318-0.948,0.665-1.876,1.055-2.775c0.121-0.304,0.248-0.601,0.389-0.892
						c0.127-0.297,0.269-0.587,0.411-0.878c0.134-0.29,0.276-0.58,0.432-0.863c0.141-0.283,0.29-0.566,0.446-0.85
						c0.149-0.283,0.304-0.559,0.467-0.835c3.928-6.873,9.634-12.267,15.7-16.705c5.252-3.858,10.788-7.001,15.693-9.789
						c8.098-4.594,13.442-7.63,14.631-12.189c2.237-8.579-1.578-65.192-2.789-82.208h0.255c-0.042-1.274-0.078-2.548-0.078-3.815
						h-4.289c0,0,0.396,5.408,0.941,13.506c0.092,1.352,0.184,2.775,0.283,4.261c0.127,1.989,0.262,4.077,0.396,6.257
						c0.234,3.808,0.481,7.864,0.715,12.005c0.035,0.623,0.071,1.253,0.099,1.89c0.057,0.92,0.106,1.84,0.156,2.768
						c0.036,0.623,0.064,1.253,0.099,1.883c0.099,1.947,0.198,3.9,0.29,5.832c0.014,0.149,0.021,0.297,0.028,0.446
						c0.064,1.408,0.127,2.803,0.191,4.176c0.071,1.642,0.141,3.263,0.205,4.856c0.028,0.878,0.064,1.741,0.092,2.591
						c0.248,6.972,0.368,13.208,0.269,17.766c-0.014,0.531-0.028,1.041-0.043,1.529c-0.007,0.248-0.021,0.488-0.028,0.722
						c-0.014,0.29-0.028,0.573-0.043,0.842c-0.042,0.673-0.092,1.281-0.141,1.819c-0.014,0.106-0.021,0.212-0.036,0.311v0.007
						c-0.078,0.651-0.17,1.189-0.276,1.593c-0.021,0.071-0.043,0.142-0.064,0.213c-0.021,0.078-0.049,0.149-0.078,0.219
						c-0.007,0.007-0.007,0.014-0.007,0.021c-0.057,0.142-0.121,0.276-0.198,0.411c-0.035,0.071-0.078,0.141-0.12,0.212
						c-0.014,0.021-0.028,0.042-0.035,0.064c-0.078,0.128-0.163,0.248-0.255,0.375c-1.055,1.444-3.015,2.916-5.592,4.53
						c-0.127,0.078-0.255,0.156-0.389,0.24c-0.524,0.326-1.069,0.659-1.642,0.991c-0.141,0.085-0.283,0.17-0.432,0.255
						c-0.871,0.51-1.784,1.033-2.739,1.578c-0.198,0.113-0.403,0.234-0.609,0.347c-1.409,0.8-2.895,1.643-4.431,2.534
						c-0.701,0.404-1.409,0.821-2.131,1.246c-0.007,0-0.007,0-0.007,0c-0.722,0.439-1.451,0.878-2.187,1.323
						c-0.043,0.021-0.078,0.05-0.12,0.078c-0.326,0.198-0.651,0.403-0.984,0.609c-0.064,0.036-0.127,0.078-0.191,0.12
						c-0.389,0.248-0.778,0.496-1.175,0.75c-0.531,0.34-1.069,0.687-1.6,1.048c-0.092,0.057-0.177,0.12-0.269,0.177
						c-0.396,0.269-0.793,0.538-1.182,0.814c-0.17,0.113-0.34,0.227-0.503,0.34c-0.05,0.036-0.099,0.071-0.149,0.106
						c-0.687,0.482-1.38,0.977-2.06,1.486c-0.779,0.573-1.557,1.168-2.329,1.784c-0.729,0.588-1.451,1.182-2.166,1.791l-1.062,0.934
						c-0.155,0.142-0.304,0.276-0.46,0.418c-0.326,0.297-0.651,0.601-0.977,0.906c-0.326,0.311-0.644,0.623-0.963,0.941
						c-0.233,0.226-0.46,0.46-0.693,0.694c-0.163,0.17-0.333,0.34-0.496,0.517c-0.234,0.241-0.46,0.482-0.687,0.729
						c-0.616,0.665-1.217,1.345-1.791,2.046c-0.29,0.34-0.566,0.687-0.85,1.033c0,0.007-0.007,0.014-0.014,0.021
						c-0.262,0.333-0.517,0.666-0.771,1.005c-0.297,0.389-0.588,0.793-0.871,1.196c-0.269,0.375-0.531,0.757-0.785,1.147
						c-0.043,0.064-0.085,0.127-0.128,0.191c-0.205,0.312-0.403,0.63-0.602,0.949c-0.538,0.857-1.048,1.741-1.536,2.647
						c-0.156,0.305-0.318,0.609-0.474,0.921c-0.269,0.524-0.524,1.069-0.771,1.614c-0.128,0.276-0.248,0.552-0.368,0.828
						c-0.368,0.85-0.708,1.727-1.02,2.619c-0.07,0.205-0.141,0.411-0.212,0.616c-0.262,0.765-0.503,1.55-0.722,2.35
						c-0.064,0.234-0.12,0.467-0.184,0.708c-0.142,0.524-0.269,1.048-0.375,1.585c-0.064,0.262-0.12,0.531-0.17,0.8
						c-0.042,0.205-0.078,0.418-0.12,0.623c-0.028,0.12-0.05,0.24-0.064,0.361c-0.085,0.495-0.163,0.991-0.234,1.5
						c-0.042,0.276-0.078,0.559-0.113,0.842c-0.142,1.204-0.248,2.393-0.319,3.561c-0.035,0.588-0.064,1.168-0.078,1.741
						C46.244,248.066,46.237,248.37,46.237,248.667z"/>
					<path style="fill:#FFFFFF;" d="M134.927,93.187v5.904c0,2.154-1.746,3.9-3.9,3.9h-37.77c-2.154,0-3.9-1.746-3.9-3.9v-5.904
						H134.927z"/>
					<path style="opacity:0.5;" d="M46.237,248.667c-0.085,5.252,0.559,10.143,1.734,14.695c0.368,1.437,0.792,2.846,1.267,4.212
						l0.007,0.007c0.354,1.04,0.743,2.06,1.154,3.058c0,0.007,0,0.007,0.007,0.007c0.304,0.75,0.63,1.486,0.963,2.215
						c0.113,0.248,0.226,0.488,0.347,0.729c0.227,0.481,0.46,0.955,0.701,1.422c0.12,0.241,0.241,0.474,0.368,0.708
						c1.104,2.095,2.315,4.091,3.596,5.981c0,0.007,0.007,0.007,0.007,0.007c0.319,0.467,0.637,0.934,0.97,1.387c0,0,0,0,0,0.007
						c0,0,0.007,0,0.007,0.007v0.007c0.113,0.149,0.219,0.297,0.326,0.446c0,0.007,0.007,0.007,0.007,0.007
						c0.29,0.404,0.588,0.8,0.892,1.196c0,0.007,0,0.007,0.007,0.007c0.297,0.396,0.602,0.786,0.906,1.168
						c0.156,0.198,0.311,0.389,0.467,0.58c0.276,0.333,0.545,0.666,0.821,0.991c0.007,0.007,0.007,0.007,0.014,0.014
						c3.029,3.122,8.367,7.326,17.13,10.653c0.007,0,0.007,0,0.014,0.007c8.14,3.079,19.239,5.408,34.196,5.408
						c14.971,0,26.077-2.336,34.217-5.422h0.007c8.763-3.327,14.093-7.531,17.116-10.653c0.021-0.014,0.028-0.028,0.043-0.042
						c0.106-0.128,0.212-0.262,0.326-0.389c0.007-0.014,0.014-0.028,0.028-0.036c0.453-0.552,0.906-1.118,1.359-1.691
						c0.021-0.036,0.049-0.071,0.085-0.113c0.475-0.609,0.941-1.232,1.402-1.869c0.057-0.085,0.121-0.17,0.184-0.255
						c0-0.007,0.007-0.007,0.007-0.014c0.007-0.007,0.007-0.014,0.007-0.014h0.007c0.177-0.255,0.361-0.51,0.538-0.765
						c0.432-0.623,0.856-1.253,1.267-1.897c0.007,0,0.007-0.007,0.007-0.007c0.213-0.333,0.425-0.672,0.637-1.012
						c0.227-0.361,0.446-0.729,0.666-1.097c0.198-0.333,0.389-0.658,0.573-0.991c0.205-0.354,0.404-0.715,0.595-1.076
						c0.177-0.319,0.347-0.637,0.517-0.963c0.042-0.085,0.085-0.177,0.134-0.269c0.163-0.318,0.326-0.644,0.481-0.97
						c0.184-0.368,0.361-0.743,0.538-1.126c-1.593,0.34-3.157,0.651-4.693,0.941c-46.902,8.777-71.258-5.868-83.886-24.25
						c-2.768-4.028-4.976-8.232-6.725-12.409c-1.642-3.907-2.895-7.786-3.843-11.474c-1.423-5.543-2.173-10.646-2.555-14.737
						c-0.163-1.663-0.262-3.157-0.318-4.445c-0.05,0.036-0.099,0.071-0.149,0.106c-0.687,0.482-1.373,0.977-2.06,1.486
						c-0.779,0.573-1.557,1.168-2.329,1.784c-0.729,0.588-1.451,1.182-2.166,1.791l-1.062,0.934
						c-0.155,0.142-0.304,0.276-0.46,0.418c-0.326,0.297-0.651,0.601-0.977,0.906c-0.326,0.311-0.644,0.623-0.963,0.941
						c-0.233,0.226-0.46,0.46-0.693,0.694c-0.163,0.17-0.333,0.34-0.496,0.517c-0.234,0.241-0.46,0.482-0.687,0.729
						c-0.609,0.665-1.21,1.345-1.791,2.046c-0.29,0.34-0.566,0.687-0.85,1.033c0,0.007-0.007,0.014-0.014,0.021
						c-0.262,0.333-0.517,0.666-0.771,1.005c-0.297,0.389-0.588,0.793-0.871,1.196c-0.269,0.375-0.531,0.757-0.785,1.147
						c-0.043,0.064-0.085,0.127-0.128,0.191c-0.205,0.312-0.403,0.63-0.602,0.949c-0.538,0.857-1.048,1.741-1.536,2.647
						c-0.156,0.305-0.318,0.609-0.474,0.921c-0.269,0.524-0.524,1.069-0.771,1.614c-0.128,0.276-0.248,0.552-0.368,0.828
						c-0.368,0.85-0.708,1.727-1.02,2.619c-0.07,0.205-0.141,0.411-0.212,0.616c-0.262,0.765-0.503,1.55-0.722,2.35
						c-0.064,0.234-0.12,0.467-0.184,0.708c-0.142,0.524-0.269,1.048-0.375,1.585c-0.064,0.262-0.12,0.531-0.17,0.8
						c-0.042,0.205-0.078,0.418-0.12,0.623c-0.028,0.12-0.05,0.24-0.064,0.361c-0.092,0.495-0.17,0.998-0.234,1.5
						c-0.049,0.276-0.085,0.559-0.12,0.842c-0.141,1.204-0.248,2.393-0.311,3.561c-0.035,0.588-0.064,1.168-0.078,1.741
						C46.244,248.066,46.237,248.37,46.237,248.667z"/>
					<path style="opacity:0.7;fill:#FFFFFF;" d="M144.918,230.38c7.835,7.835,16.461,11.911,19.268,9.104
						c2.807-2.807-1.27-11.433-9.104-19.268c-7.835-7.835-16.461-11.911-19.268-9.104
						C133.007,213.918,137.083,222.545,144.918,230.38z"/>
				</g>
				<g>
					
						<rect x="201.368" y="51.192" transform="matrix(-1 -1.224647e-16 1.224647e-16 -1 409.7119 446.7864)" style="fill:#BBBCBF;" width="6.975" height="344.403"/>
					
						<rect x="176.958" y="85.541" transform="matrix(-1 -1.224647e-16 1.224647e-16 -1 462.3394 178.0565)" style="fill:#BBBCBF;" width="108.424" height="6.975"/>
					
						<rect x="37.495" y="279.087" transform="matrix(-1 -1.224647e-16 1.224647e-16 -1 278.0931 565.1482)" style="fill:#BBBCBF;" width="203.103" height="6.975"/>
					<path style="fill:#FFFFFF;" d="M194.711,89.028c0,5.778,4.684,10.462,10.462,10.462c5.778,0,10.462-4.684,10.462-10.462
						c0-5.778-4.684-10.462-10.462-10.462C199.395,78.566,194.711,83.25,194.711,89.028z"/>
					<path style="opacity:0.1;" d="M198.58,89.028c0,3.642,2.952,6.594,6.594,6.594c3.641,0,6.594-2.952,6.594-6.594
						c0-3.642-2.952-6.594-6.594-6.594C201.532,82.434,198.58,85.387,198.58,89.028z"/>
					<path style="fill:#FFFFFF;" d="M194.711,282.574c0,5.778,4.684,10.462,10.462,10.462c5.778,0,10.462-4.684,10.462-10.462
						c0-5.778-4.684-10.462-10.462-10.462C199.395,272.112,194.711,276.796,194.711,282.574z"/>
					<path style="opacity:0.1;" d="M198.58,282.574c0,3.642,2.952,6.594,6.594,6.594c3.641,0,6.594-2.952,6.594-6.594
						c0-3.642-2.952-6.594-6.594-6.594C201.532,275.98,198.58,278.933,198.58,282.574z"/>
					<path style="fill:#BBBCBF;" d="M36.63,395.595h200.622c3.995,0,7.233,3.239,7.233,7.233v4.814H29.397v-4.814
						C29.397,398.833,32.636,395.595,36.63,395.595z"/>
				</g>
				<g>
					<path style="fill:#45C4C4;" d="M89.961,395.589h14.445c4.606,0,7.732,0,7.732,0s11.103,0,22.192,0
						c7.805,0,11.06-4.542,9.666-9.996c-0.59-2.307-2.005-4.772-4.262-7.129c-7.625-7.912-19.339-19.317-19.339-19.317h-16.472
						c0,0-4.959,4.815-10.521,10.363c-2.997,2.989-6.166,6.187-8.825,8.954C76.953,386.405,78.858,395.589,89.961,395.589z"/>
					
						<rect x="111.504" y="346.131" transform="matrix(-1 -1.224647e-16 1.224647e-16 -1 224.8848 732.855)" style="fill:#19195B;" width="1.877" height="40.593"/>
					<path style="opacity:0.5;" d="M136.354,379.2c5.809,6.823,4.898,14.322-4.54,14.322c-9.835,0-19.671,0-19.671,0
						s-2.774,0-6.86,0H92.472c-9.185,0-10.236-7.105-4.966-13.776C104.471,379.489,119.43,378.888,136.354,379.2z"/>
					<path style="opacity:0.7;fill:#FFFFFF;" d="M125.722,371.933c3.884,3.884,7.614,6.45,8.331,5.733
						c0.718-0.718-1.849-4.448-5.732-8.332c-3.884-3.884-7.614-6.45-8.331-5.732C119.272,364.319,121.839,368.049,125.722,371.933z"
						/>
					<path style="fill:#F0F1F1;" d="M103.937,355.511v3.638h16.457v-3.638c0-1.323-1.111-2.392-2.477-2.392h-11.509
						C105.041,353.119,103.937,354.188,103.937,355.511z"/>
					<path style="fill:#FFBC42;" d="M113.169,350.079c0,0,13.356-2.158,9.869-13.888c-2.934-9.103-10.061-8.336-9.869-21.302
						c0,0-6.241,6.45-4.205,16.571c0,0-2.276-1.617-2.455-6.528C106.509,324.932,92.879,348.493,113.169,350.079z"/>
					<path style="opacity:0.5;" d="M113.026,349.675c0,0,8.835-1.428,6.528-9.187c-1.941-6.022-5.514-5.722-7.369-14.871
						c0,0-3.075,3.593-0.987,10.612c0,0-3.133-0.501-4.178-4.053C107.022,332.175,99.605,348.626,113.026,349.675z"/>
				</g>
			</g>
			<g>
				<g>
					<g>
						<path style="fill:#4949E5;" d="M160.83,386.282h8.75l-4.099,0.047l0.046,4.613l0.046,2.33l0.092,4.321l3.915,0.775l4.42,0.875
							l-4.42,0.872l-3.868,0.777l0.046,5.243v0.436l0.046,1.894l0.092,5.291l3.684,0.292l9.347,0.68l-9.347,0.97l-3.684,0.389
							l0.092,5.099h-4.605l0.046,3.883l19.294-0.292l52.265-0.728l14.551-0.194l53.969-0.728l18.466-0.242l2.809-0.05h0.045
							l57.929-0.777l24.775-0.339l12.663-0.194c11.328-0.194,20.353-10,20.169-21.942c-0.183-11.942-9.485-21.407-20.814-21.262
							l-12.939,0.194l-224.578,3.107l-19.249,0.289L160.83,386.282z"/>
						<path style="fill:#ED770C;" d="M180.033,381.795l0.69,42.982v0.05l120.371-1.602l18.419-0.292l3.177-0.047l56.455-0.73
							c0.552,0,1.105-0.047,1.611-0.097l24.775-0.339c8.012-3.155,13.722-11.747,13.538-21.798
							c-0.138-10.145-6.216-18.591-14.459-21.407L180.033,381.795z"/>
						<path style="fill:#4949E5;" d="M160.83,386.282h8.75l-4.099,0.047l0.046,4.613l0.046,2.33l0.092,4.321l3.915,0.775l4.42,0.875
							l-4.42,0.872l-3.868,0.777l0.046,5.243v0.436l0.046,1.894l0.092,5.291l3.684,0.292l9.347,0.68l-9.347,0.97l-3.684,0.389
							l0.092,5.099h-4.605l0.046,3.883l19.294-0.242l120.371-1.602l18.419-0.292l3.177-0.047l56.455-0.73
							c0.552,0,1.105-0.047,1.611-0.097c10.499-1.019,18.742-10.484,18.558-21.795c-0.184-11.942-9.532-21.456-20.814-21.262
							l-55.902,0.728l-142.566,1.941l-19.249,0.242L160.83,386.282z"/>
						<path style="fill:#ED770C;" d="M174.645,385.213h8.75l-4.099,0.05v1.067l0.046,3.788l0.046,2.427l0.092,5.582l0.046,2.427
							l0.046,5.535l0.046,2.427l0.092,5.582v2.427l0.092,4.66v0.68h-4.605l0.046,2.876l125.851-1.518l18.419-0.292l3.177-0.047
							c8.335-2.963,14.366-11.653,14.183-21.895c-0.139-10-6.125-18.399-14.275-21.262l-148,2.183L174.645,385.213z"/>
						<path style="fill:#4949E5;" d="M169.58,398.369l4.42,0.875l-4.42,0.872v13.933l9.347,0.68l-9.347,0.97v5.487h-8.197
							l0.046,3.883l136.304-1.505c0.69,0,1.335-0.047,1.98-0.145c0.046,0,0.046,0,0.091,0c0.415-0.05,0.876-0.147,1.291-0.194
							c0.137-0.05,0.275-0.05,0.414-0.097c9.44-2.039,16.532-10.923,16.394-21.506c-0.184-11.942-9.532-21.407-20.814-21.212
							l-81.505,0.922l-5.848,0.047l-29.701,0.339l-19.249,0.194l0.046,4.371h8.75V398.369z"/>
						<path style="opacity:0.5;" d="M169.538,398.009l5.061,1.123l-5.055,1.14l-1.328,13.368l11.229,1.078l-9.855,1.137
							l-0.008,5.282l-8.173,0.05l0.057,3.883l115.462-1.258c0.69-0.001,1.334-0.049,1.979-0.148c0.046,0,0.046,0,0.091,0
							c0.415-0.051,0.875-0.148,1.29-0.197c0.137-0.05,0.275-0.05,0.414-0.098c9.434-2.054,16.5-10.949,16.331-21.533
							c-0.219-11.941-9.595-21.643-20.876-21.43l-115.372,1.506l0.046,4.371h8.75L169.538,398.009z"/>
						<path style="fill:#F0F1F1;" d="M165.481,386.33l0.046,4.613l0.046,2.33l0.092,4.321l3.915,0.775l4.42,0.875l-4.42,0.872
							l-3.868,0.777l0.046,5.243v0.436l0.046,1.894l0.092,5.291l3.684,0.292l9.347,0.68l-9.347,0.97l-3.684,0.389l0.092,5.099
							l3.592-0.05l10.223-0.097h0.875l94.584-1.019c9.117-0.145,16.393-8.057,16.255-17.718
							c-0.138-9.612-7.645-17.282-16.807-17.138l-94.584,1.022h-0.83l-9.715,0.097L165.481,386.33z"/>
						<g>
							<g>
								<polygon style="fill:#CFD1D2;" points="284.238,389.953 284.222,392.284 279.846,392.209 169.672,391.252 279.814,389.976 
																	"/>
							</g>
							<g>
								<polygon style="fill:#CFD1D2;" points="288.805,397.576 288.789,399.906 279.958,399.831 177.075,399.122 279.926,397.596 
																	"/>
							</g>
							<g>
								<polygon style="fill:#CFD1D2;" points="288.815,405.15 288.799,407.48 280.071,407.45 165.57,406.592 280.037,405.17 
																	"/>
							</g>
							<g>
								<polygon style="fill:#CFD1D2;" points="284.172,412.772 284.206,415.102 280.183,415.07 184.945,414.57 280.15,412.838 
																	"/>
							</g>
						</g>
					</g>
					<path style="fill:#ED770C;" d="M281.162,399.841c0,0-9.785,0.64-10.168,16.821l-7.387-4.45l-7.771,4.45
						c0,0-0.768-12.541,8.058-16.756L281.162,399.841z"/>
				</g>
				<g>
					<g>
						<path style="fill:#FFBC42;" d="M452.714,343.328l-8.749,0.112l4.099-0.005l0.007,4.613l-0.019,2.33l-0.043,4.322l-3.905,0.825
							l-4.41,0.931l4.43,0.816L448,358l0.014,5.243l0.005,0.436l-0.024,1.894l-0.031,5.291l-3.681,0.339l-9.338,0.799l9.357,0.85
							l3.688,0.342l-0.034,5.099l4.604-0.059l-0.001,3.883l-19.296-0.045l-52.27-0.061l-14.552-0.009l-53.973-0.039l-18.467-0.006
							l-2.81-0.014l-0.045,0l-57.934-0.038l-24.777-0.023l-12.665-0.033c-11.329-0.05-20.466-9.74-20.419-21.684
							c0.046-11.943,9.239-21.526,20.568-21.526l12.94,0.029l224.598,0.242l19.251,0.044L452.714,343.328z"/>
						<path style="fill:#FFBC42;" d="M452.714,343.328l-8.749,0.112l4.099-0.005l0.007,4.613l-0.019,2.33l-0.043,4.322l-3.905,0.825
							l-4.41,0.931l4.43,0.816L448,358l0.014,5.243l0.005,0.436l-0.024,1.894l-0.031,5.291l-3.681,0.339l-9.338,0.799l9.357,0.85
							l3.688,0.342l-0.034,5.099l4.604-0.059l-0.001,3.883l-19.295,0.004l-120.381-0.067l-18.421-0.057l-3.177-0.007l-56.46-0.01
							c-0.552,0.007-1.106-0.033-1.612-0.077c-10.51-0.885-18.861-10.244-18.807-21.557c0.047-11.943,9.285-21.576,20.568-21.526
							l55.907,0.015l142.578,0.122l19.25-0.004L452.714,343.328z"/>
						<path style="fill:#FFBC42;" d="M444.103,355.525l-4.41,0.931l4.43,0.816l0.16,13.932l-9.338,0.799l9.357,0.85l0.063,5.487
							l8.196-0.105l-0.001,3.883l-136.311,0.234c-0.69,0.009-1.335-0.03-1.981-0.119c-0.046,0.001-0.046,0.001-0.091,0.001
							c-0.415-0.044-0.877-0.136-1.293-0.178c-0.138-0.048-0.276-0.046-0.415-0.092c-9.463-1.918-16.656-10.711-16.639-21.296
							c0.047-11.943,9.286-21.527,20.569-21.476l81.51-0.118l5.848-0.027l29.703-0.04l19.25-0.051l0.004,4.371l-8.749,0.112
							L444.103,355.525z"/>
						<path style="opacity:0.5;" d="M444.103,355.525l-4.41,0.931l4.43,0.816l0.16,13.932l-9.338,0.799l9.357,0.85l0.063,5.487
							l8.196-0.105l-0.001,3.883l-115.47,0.234c-0.69,0.009-1.335-0.03-1.981-0.119c-0.046,0.001-0.046,0.001-0.091,0.001
							c-0.415-0.044-0.877-0.136-1.293-0.178c-0.138-0.048-0.276-0.046-0.415-0.092c-9.463-1.918-16.656-10.711-16.639-21.296
							c0.047-11.943,9.286-21.527,20.569-21.476l60.669-0.118l5.848-0.027l29.703-0.04l19.25-0.051l0.004,4.371l-8.749,0.112
							L444.103,355.525z"/>
						<path style="opacity:0.5;" d="M299.145,347.837l-101.173,1.291c-5.512,0.07-9.926,4.838-9.86,10.649
							c0.067,5.811,4.589,10.464,10.101,10.394l101.173-1.291c5.512-0.07,9.926-4.838,9.86-10.649
							C309.18,352.421,304.658,347.767,299.145,347.837z"/>
						<path style="fill:#F0F1F1;" d="M448.064,343.434l0.007,4.613l-0.019,2.33l-0.043,4.322l-3.905,0.825l-4.41,0.931l4.43,0.816
							L448,358l0.014,5.243l0.005,0.436l-0.024,1.894l-0.031,5.291l-3.681,0.339l-9.338,0.799l9.357,0.85l3.688,0.342l-0.034,5.099
							l-3.592-0.004l-10.223,0.033l-0.875,0.011l-94.588,0.188c-9.119-0.028-16.485-7.847-16.457-17.51
							c0.028-9.613,7.446-17.379,16.609-17.351l94.589-0.185l0.83-0.01l9.716-0.027L448.064,343.434z"/>
						<g>
							<g>
								<polygon style="fill:#CFD1D2;" points="329.356,348.573 329.399,350.903 333.774,350.772 443.93,348.41 333.781,348.539 
																	"/>
							</g>
							<g>
								<polygon style="fill:#CFD1D2;" points="324.878,356.253 324.921,358.583 333.749,358.395 436.617,356.373 333.757,356.159 
																	"/>
							</g>
							<g>
								<polygon style="fill:#CFD1D2;" points="324.954,363.826 324.997,366.156 333.725,366.015 448.207,363.697 333.732,363.735 
																	"/>
							</g>
							<g>
								<polygon style="fill:#CFD1D2;" points="329.685,371.389 329.678,373.719 333.7,373.636 428.925,371.92 333.707,371.403 
																	"/>
							</g>
						</g>
					</g>
					<path style="fill:#45C4C4;" d="M338.435,373.551c0,0,9.826,0.412,10.395,16.587l7.335-4.544l7.821,4.35
						c0,0,0.624-12.549-8.25-16.652L338.435,373.551z"/>
				</g>
			</g>
		</g>
	</g>
	<g>
		<g>
			<path style="fill:#FFFFFF;" d="M109.557,420.477c0,6.281,5.094,11.375,11.375,11.375c-6.281,0-11.375,5.094-11.375,11.375
				c0-6.281-5.094-11.375-11.375-11.375C104.464,431.852,109.557,426.758,109.557,420.477z"/>
			<path style="fill:#FFFFFF;" d="M316.67,36.432c0,6.281,5.094,11.375,11.375,11.375c-6.281,0-11.375,5.094-11.375,11.375
				c0-6.281-5.094-11.375-11.375-11.375C311.577,47.806,316.67,42.713,316.67,36.432z"/>
			<path style="fill:#FFFFFF;" d="M46.23,123.206c0,9.725,7.887,17.612,17.612,17.612c-9.725,0-17.612,7.886-17.612,17.612
				c0-9.725-7.886-17.612-17.612-17.612C38.344,140.818,46.23,132.931,46.23,123.206z"/>
			<path style="fill:#FFFFFF;" d="M446.816,239.615c0,9.725,7.887,17.612,17.612,17.612c-9.725,0-17.612,7.887-17.612,17.612
				c0-9.725-7.887-17.612-17.612-17.612C438.93,257.227,446.816,249.34,446.816,239.615z"/>
		</g>
		<g>
			<path style="fill:#FFFFFF;" d="M1633.714,420.477c0,6.281,5.094,11.375,11.375,11.375c-6.281,0-11.375,5.094-11.375,11.375
				c0-6.281-5.094-11.375-11.375-11.375C1628.621,431.852,1633.714,426.758,1633.714,420.477z"/>
			<path style="fill:#FFFFFF;" d="M1680.839,39.047c0,6.281,5.094,11.375,11.375,11.375c-6.281,0-11.375,5.094-11.375,11.375
				c0-6.281-5.094-11.375-11.375-11.375C1675.746,50.421,1680.839,45.328,1680.839,39.047z"/>
			<path style="fill:#FFFFFF;" d="M1461.102,218.781c0,9.725,7.886,17.612,17.612,17.612c-9.725,0-17.612,7.887-17.612,17.612
				c0-9.725-7.886-17.612-17.612-17.612C1453.216,236.393,1461.102,228.506,1461.102,218.781z"/>
			<path style="fill:#FFFFFF;" d="M1874.187,214.331c0,9.725,7.886,17.612,17.612,17.612c-9.725,0-17.612,7.887-17.612,17.612
				c0-9.725-7.886-17.612-17.612-17.612C1866.301,231.943,1874.187,224.056,1874.187,214.331z"/>
		</g>
	</g>
	<g>
		<ellipse style="opacity:0.3;" cx="1692.293" cy="414.672" rx="220.147" ry="25.395"/>
		<g>
			<g>
				<g>
					<path style="fill:#FF5959;" d="M1393.264,182.937l2.952,1.893c0.278-0.546,1.29-2.254,3.699-3.914
						c0.486-0.339,1.036-0.68,1.657-1.005c1.743-0.929,4.017-1.766,6.936-2.272c0.838-0.145,1.731-0.265,2.683-0.347
						c3.059-0.272,6.727-0.205,11.09,0.391c0.799,0.109,1.626,0.237,2.483,0.383c0.15,0.024,0.308,0.052,0.465,0.081
						c0.046,0.009,0.092,0.018,0.138,0.027c0.414,0.079,0.818,0.142,1.223,0.205c0.961,0.162,1.898,0.297,2.81,0.406l0.007,0.005
						c3.273,0.393,6.21,0.488,8.852,0.352c0.991-0.047,1.943-0.129,2.852-0.239c2.958-0.357,5.479-1.015,7.61-1.84
						c0.551-0.215,1.076-0.437,1.579-0.673c5.289-2.46,7.825-5.9,8.79-7.566c0.026-0.025,0.033-0.051,0.047-0.073
						c0.279-0.483,0.415-0.809,0.455-0.887l-3.147-1.315l-0.063-0.03c-0.021,0.049-0.088,0.202-0.219,0.439
						c-0.068,0.122-0.15,0.266-0.253,0.427c-0.366,0.571-0.941,1.371-1.823,2.263c-0.394,0.388-0.829,0.792-1.35,1.202
						c-1.366,1.099-3.205,2.225-5.625,3.113c-0.672,0.241-1.389,0.474-2.163,0.681c-2.427,0.656-5.328,1.07-8.797,1.079
						c-1.077,0.002-2.212-0.033-3.401-0.113c-1.842-0.127-3.821-0.362-5.947-0.722c-0.273-0.041-0.542-0.089-0.811-0.138
						c-1.318-0.235-2.584-0.437-3.808-0.591c-0.903-0.124-1.773-0.217-2.627-0.289c-1.24-0.113-2.42-0.176-3.547-0.207
						c-3.625-0.102-6.71,0.195-9.325,0.741c-0.82,0.167-1.589,0.366-2.317,0.582C1397.156,177.11,1394.235,181.182,1393.264,182.937
						z"/>
				</g>
				<g>
					<path style="fill:#45C4C4;" d="M1415.674,155.695c0.006,0.055,0.007,0.118,0.008,0.181c0.14,2.281,0.598,4.839,1.503,7.684
						c0.279,0.871,0.606,1.764,0.965,2.687c0.99,2.455,2.309,5.089,4.035,7.911c0.48,0.783,0.994,1.578,1.542,2.384
						c0.226,0.341,0.452,0.682,0.697,1.026c0.119,0.169,0.23,0.334,0.342,0.498c0.092,0.131,0.183,0.262,0.268,0.389
						c0.392,0.582,0.769,1.155,1.124,1.713c2.362,3.717,3.954,7.022,4.983,9.915c0.323,0.899,0.587,1.761,0.804,2.583
						c0.758,2.864,0.946,5.28,0.829,7.252c-0.036,0.701-0.116,1.342-0.222,1.926c-0.504,2.882-1.622,4.512-2.006,4.999l2.945,1.888
						c1.19-1.614,3.672-5.968,2.593-13.411c-0.107-0.751-0.247-1.533-0.438-2.348c-0.594-2.604-1.612-5.531-3.217-8.783
						c-0.499-1.012-1.048-2.057-1.669-3.137c-0.419-0.734-0.874-1.491-1.351-2.262l-0.007-0.005
						c-0.651-1.048-1.363-2.114-2.126-3.214c-0.164-0.229-0.315-0.46-0.471-0.684c-1.207-1.777-2.246-3.477-3.13-5.098
						c-0.569-1.047-1.075-2.064-1.522-3.044c-1.439-3.156-2.274-5.965-2.69-8.445c-0.135-0.789-0.223-1.539-0.284-2.25
						c-0.203-2.57,0.049-4.704,0.482-6.411c0.018-0.092,0.043-0.18,0.068-0.267c0.143-0.529,0.3-1.017,0.462-1.462
						c0.443-1.174,0.927-2.042,1.301-2.609c0.103-0.161,0.2-0.295,0.282-0.408c0.16-0.218,0.271-0.343,0.307-0.382l-0.054-0.045
						l-2.513-2.304c-0.062,0.064-0.293,0.329-0.616,0.784c-0.014,0.022-0.04,0.047-0.047,0.073
						C1417.641,144.727,1415.308,148.978,1415.674,155.695z"/>
				</g>
				<g>
					
						<rect x="1468.246" y="117.515" transform="matrix(0.5398 -0.8418 0.8418 0.5398 568.7141 1295.4364)" style="fill:#45C4C4;" width="1.741" height="20.156"/>
					<path style="fill:#45C4C4;" d="M1471.74,137.029c-0.779,0.183-1.607,0.345-2.471,0.483l-13.099-8.399l0.939-1.465
						L1471.74,137.029z"/>
					<path style="fill:#FF5959;" d="M1459.734,146.905c0.166,0.819,0.373,1.626,0.578,2.439l-12.128-7.777l0.94-1.465
						L1459.734,146.905z"/>
					<path style="fill:#FF5959;" d="M1460.953,156.475c-0.072,0.631-0.167,1.262-0.274,1.892l-16.488-10.573l0.939-1.465
						L1460.953,156.475z"/>
					
						<rect x="1448.281" y="148.651" transform="matrix(0.5397 -0.8418 0.8418 0.5397 533.3705 1293.0037)" style="fill:#FF5959;" width="1.741" height="20.156"/>
					
						<rect x="1444.288" y="154.878" transform="matrix(0.5398 -0.8418 0.8418 0.5398 526.236 1292.4639)" style="fill:#FF5959;" width="1.741" height="20.156"/>
					<path style="fill:#FF5959;" d="M1450.119,175.89l-0.174,0.271c-0.503,0.236-1.027,0.458-1.579,0.673l-16.154-10.358l0.94-1.465
						L1450.119,175.89z"/>
					<path style="fill:#FF5959;" d="M1440.756,178.674c-0.908,0.11-1.86,0.192-2.852,0.239l-9.685-6.21l0.939-1.465
						L1440.756,178.674z"/>
					<path style="fill:#45C4C4;" d="M1434.055,191.952c0.048,0.337,0.115,0.678,0.222,1.024c0.167,0.537,0.375,1.057,0.598,1.57
						l-14.642-9.389l0.939-1.465L1434.055,191.952z"/>
					
						<rect x="1424.324" y="186.013" transform="matrix(0.5398 -0.8418 0.8418 0.5398 490.8376 1289.9868)" style="fill:#45C4C4;" width="1.741" height="20.156"/>
					
						<rect x="1451.275" y="106.629" transform="matrix(0.5398 -0.8418 0.8418 0.5398 570.0642 1276.1422)" style="fill:#FF5959;" width="1.741" height="20.164"/>
					<path style="fill:#FF5959;" d="M1443.347,118.823l13.763,8.825l-0.939,1.465l-12.429-7.97
						C1443.774,120.358,1443.635,119.562,1443.347,118.823z"/>
					<path style="fill:#45C4C4;" d="M1437.889,132.898l11.235,7.204l-0.94,1.465l-12.297-7.885
						C1436.578,133.455,1437.25,133.203,1437.889,132.898z"/>
					<path style="fill:#45C4C4;" d="M1429.106,136.054l16.025,10.275l-0.939,1.465l-16.957-10.873
						C1427.863,136.617,1428.489,136.328,1429.106,136.054z"/>
					<polygon style="fill:#45C4C4;" points="1440.198,154.021 1422.435,142.631 1423.466,141.225 1441.138,152.556 					"/>
					
						<rect x="1427.318" y="143.992" transform="matrix(0.5398 -0.8418 0.8418 0.5398 527.5759 1273.1614)" style="fill:#45C4C4;" width="1.741" height="20.164"/>
					<path style="fill:#45C4C4;" d="M1416.473,154.316l16.678,10.694l-0.94,1.465l-15.956-10.231
						C1416.288,155.617,1416.372,154.968,1416.473,154.316z"/>
					<path style="fill:#45C4C4;" d="M1418.826,164.612l10.333,6.626l-0.939,1.465l-9.671-6.201
						C1418.775,165.895,1418.879,165.255,1418.826,164.612z"/>
					<path style="fill:#FF5959;" d="M1407.457,174.896l13.716,8.795l-0.939,1.465l-15.103-9.684
						C1405.897,175.247,1406.673,175.056,1407.457,174.896z"/>
					
						<rect x="1407.353" y="175.127" transform="matrix(0.5398 -0.8418 0.8418 0.5398 492.1823 1270.688)" style="fill:#FF5959;" width="1.741" height="20.164"/>
				</g>
				<g>
					<path style="fill:none;" d="M1476.975,131.598c-0.542,0.314-1.135,0.626-1.797,0.915c-1.923,0.855-4.361,1.577-7.449,1.943
						c-0.903,0.103-1.863,0.181-2.873,0.225c-3.266,0.128-7.136-0.109-11.693-0.902c-2.617-3.818-4.445-7.223-5.692-10.245
						c-0.381-0.937-0.711-1.841-0.995-2.705c-0.956-2.959-1.317-5.476-1.342-7.58c-0.013-0.721,0.023-1.391,0.082-2.015
						c0.353-3.605,1.704-5.617,2.156-6.202l34.338,22.018C1481.365,127.716,1480.093,129.782,1476.975,131.598z"/>
					<path style="fill:#45C4C4;" d="M1451.124,136.96c-3.01-0.514-5.723-0.764-8.179-0.82c-1.109-0.028-2.163-0.012-3.167,0.037
						c-3.263,0.172-5.974,0.708-8.211,1.455c-0.722,0.24-1.396,0.501-2.024,0.77c-4.477,1.968-6.647,4.691-7.518,6.066
						c-0.103,0.161-0.185,0.305-0.253,0.427c-0.131,0.237-0.198,0.39-0.219,0.438l-0.063-0.03l-3.143-1.322
						c0.032-0.082,0.188-0.438,0.502-0.96c0.007-0.027,0.033-0.051,0.047-0.073c1.392-2.364,5.767-7.994,16.223-9.757
						c0.849-0.148,1.738-0.26,2.676-0.352c3.097-0.299,6.663-0.266,10.74,0.229c0.651,1.048,1.363,2.115,2.126,3.214
						C1450.817,136.504,1450.973,136.728,1451.124,136.96z"/>
					<path style="fill:#45C4C4;" d="M1453.512,134.283c-0.027-0.038-0.055-0.076-0.082-0.115c-0.037-0.055-0.074-0.109-0.112-0.165
						c-0.054-0.076-0.109-0.152-0.156-0.224c4.557,0.793,8.427,1.03,11.693,0.902c1.011-0.044,1.97-0.122,2.873-0.225
						c3.088-0.367,5.526-1.088,7.449-1.943c0.661-0.289,1.254-0.602,1.797-0.915c3.118-1.816,4.39-3.883,4.736-4.548l2.947,1.889
						c-1.046,1.892-4.313,6.357-12.562,8.317c-0.779,0.183-1.606,0.345-2.471,0.483c-2.807,0.443-6.092,0.601-9.94,0.346
						c-1.216-0.087-2.49-0.212-3.819-0.381c-0.039-0.004-0.077-0.008-0.116-0.012c-0.027-0.038-0.047-0.072-0.067-0.105
						C1455.02,136.511,1454.3,135.409,1453.512,134.283z"/>
					<path style="fill:#FF5959;" d="M1445.217,111.234c-0.059,0.624-0.095,1.293-0.082,2.015c0.025,2.105,0.387,4.621,1.342,7.58
						c0.283,0.864,0.613,1.768,0.995,2.705c1.246,3.022,3.074,6.427,5.692,10.245c0.047,0.072,0.102,0.148,0.156,0.224
						c0.037,0.055,0.074,0.11,0.112,0.165c0.027,0.038,0.055,0.076,0.082,0.115c0.788,1.125,1.507,2.228,2.171,3.305
						c0.02,0.033,0.04,0.067,0.067,0.105c2.151,3.498,3.661,6.721,4.682,9.66c0.313,0.883,0.579,1.757,0.804,2.583
						c0.735,2.756,1.047,5.22,1.056,7.397c0.007,0.118,0.009,0.244,0.002,0.352c-0.028,5.751-2.029,9.451-3.156,11.064
						c-0.014,0.022-0.021,0.049-0.047,0.073c-0.343,0.503-0.602,0.793-0.663,0.856l-2.518-2.296l-0.054-0.045
						c0.035-0.039,0.147-0.164,0.307-0.382c0.082-0.112,0.179-0.247,0.282-0.408c0.249-0.388,0.551-0.908,0.856-1.56
						c0.223-0.477,0.45-1.024,0.654-1.648c0.517-1.581,0.913-3.633,0.87-6.162c-0.017-0.683-0.061-1.404-0.145-2.16
						c-0.262-2.349-0.894-5.039-2.111-8.074c-0.367-0.928-0.792-1.893-1.28-2.889c-1.075-2.209-2.442-4.575-4.165-7.096
						c-0.151-0.232-0.307-0.455-0.463-0.68c-0.763-1.099-1.475-2.166-2.126-3.214c-0.02-0.033-0.04-0.067-0.06-0.1
						c-0.708-1.137-1.353-2.243-1.94-3.311c-1.844-3.395-3.068-6.454-3.84-9.182c-0.235-0.843-0.426-1.658-0.584-2.442
						c-1.661-8.314,1.034-13.146,2.317-14.886l2.946,1.889C1446.921,105.618,1445.569,107.63,1445.217,111.234z"/>
				</g>
			</g>
			<g>
				<g>
					<polyline style="fill:none;stroke:#FFFFFF;stroke-width:4;stroke-miterlimit:10;" points="1748.772,139.592 1720.444,101.389 
						1734.563,56.896 					"/>
					
						<line style="fill:none;stroke:#FFFFFF;stroke-width:4;stroke-miterlimit:10;" x1="1670.756" y1="103.748" x2="1720.444" y2="101.389"/>
				</g>
				<g>
					<g>
						<path style="fill:#FF5959;" d="M1663.429,99.27c-2.065,5.692,0.874,11.98,6.566,14.046c5.692,2.065,11.98-0.874,14.046-6.566
							c2.066-5.692-0.874-11.98-6.566-14.046C1671.783,90.638,1665.495,93.578,1663.429,99.27z"/>
						<path style="opacity:0.5;" d="M1670.556,94.324c-1.115,2.983-1.05,6.444,0.581,9.277c1.991,3.457,5.757,5.496,9.702,5.323
							c-2.425,2.912-6.494,4.15-10.261,2.783c-4.804-1.743-7.285-7.051-5.542-11.854
							C1666.007,97.181,1668.081,95.231,1670.556,94.324z"/>
					</g>
					<g>
						<path style="fill:#ED770C;" d="M1736.687,134.109c-2.066,5.692,0.874,11.98,6.566,14.046
							c5.692,2.066,11.98-0.874,14.046-6.566c2.065-5.692-0.874-11.98-6.566-14.046
							C1745.041,125.477,1738.753,128.417,1736.687,134.109z"/>
						<path style="opacity:0.5;" d="M1743.814,129.163c-1.115,2.983-1.05,6.444,0.581,9.277c1.99,3.457,5.757,5.496,9.702,5.323
							c-2.425,2.912-6.494,4.15-10.261,2.783c-4.804-1.743-7.285-7.051-5.542-11.854
							C1739.265,132.02,1741.339,130.07,1743.814,129.163z"/>
					</g>
					<g>
						<path style="fill:#45C4C4;" d="M1723.454,55.367c-2.066,5.692,0.874,11.98,6.566,14.046c5.692,2.065,11.98-0.874,14.046-6.566
							c2.065-5.692-0.874-11.98-6.566-14.046C1731.808,46.736,1725.52,49.675,1723.454,55.367z"/>
						<path style="opacity:0.5;" d="M1730.581,50.421c-1.115,2.983-1.05,6.444,0.581,9.277c1.99,3.457,5.757,5.496,9.702,5.323
							c-2.425,2.912-6.494,4.15-10.261,2.783c-4.804-1.743-7.285-7.051-5.542-11.854
							C1726.032,53.279,1728.106,51.328,1730.581,50.421z"/>
					</g>
					<g>
						<path style="fill:#4949E5;" d="M1704.569,95.628c-3.182,8.767,1.347,18.454,10.114,21.635
							c8.767,3.182,18.454-1.347,21.635-10.114c3.182-8.767-1.347-18.454-10.114-21.635
							C1717.438,82.333,1707.751,86.861,1704.569,95.628z"/>
						<path style="opacity:0.5;" d="M1715.548,88.01c-1.718,4.595-1.618,9.926,0.896,14.29c3.066,5.325,8.868,8.465,14.945,8.2
							c-3.735,4.485-10.003,6.393-15.806,4.287c-7.399-2.685-11.221-10.86-8.536-18.26
							C1708.54,92.411,1711.735,89.407,1715.548,88.01z"/>
					</g>
				</g>
			</g>
			<g>
				<g>
					<g>
						<path style="opacity:0.8;fill:#FFFFFF;" d="M1619.491,312.48h28.869c0,0,7.167,0,16.206,0h28.878
							c14.38,0,19.46-12.021,16.875-19.171c-0.136-0.398-0.307-0.786-0.497-1.148c-5.477-9.879-39.019-50.778-39.616-64.634
							c-0.606-13.856,1.808-57.946,1.808-57.946h-31.092c0,0,2.404,44.09,1.808,57.946c-0.181,4.148-3.308,10.711-7.755,18.15
							c0,0,0,0,0,0.009c-10.421,17.408-28.028,39.553-31.87,46.476C1599.489,299.085,1604.307,312.48,1619.491,312.48z"/>
						<g>
							<g>
								<path style="fill:#FFBC42;" d="M1676.588,263.06c0,0-13.776,5.498-25.184,2.719s-18.42-4.444-24.713-2.514
									c0,0,3.652,9.535,22.958,9.681C1668.955,273.092,1676.588,263.06,1676.588,263.06z"/>
								<path style="opacity:0.5;" d="M1676.588,263.06c0,0-13.776,5.498-25.184,2.719s-18.42-4.444-24.713-2.514
									c0,0,3.652,9.535,22.958,9.681C1668.955,273.092,1676.588,263.06,1676.588,263.06z"/>
								<path style="fill:#FFBC42;" d="M1605.496,293.444c1.555-2.791,5.683-8.498,10.46-15.104
									c3.777-5.223,7.398-10.273,10.735-15.075c6.383,4.365,13.994,7,21.954,7.392c10.359,0.51,18.388-4.747,27.943-7.597
									c2.891-0.862,5.736-1.214,8.705-1.161c3.593,5.206,7.543,10.72,11.681,16.441c4.777,6.605,8.905,12.313,10.46,15.104
									c1.384,2.683,1.008,6.638-0.94,9.854c-1.464,2.416-5.107,6.47-13.053,6.47h-73.95c-7.947,0-11.59-4.054-13.054-6.47
									C1604.488,300.082,1604.112,296.127,1605.496,293.444z"/>
							</g>
							<path style="fill:#FFFFFF;" d="M1603.107,292.159c5.477-9.873,39.016-50.773,39.619-64.633
								c0.602-13.859-1.808-57.946-1.808-57.946h3.007c0.033,0.91,0.067,2.712,0.067,2.712s1.961,43.415,1.442,55.352
								c-0.425,9.775-13.602,28.743-29.479,50.695c-4.777,6.605-8.905,12.313-10.46,15.104c-1.384,2.683-1.008,6.638,0.94,9.854
								c1.464,2.416,5.107,6.47,13.054,6.47h73.95c7.947,0,11.589-4.054,13.053-6.47c1.948-3.216,2.324-7.17,0.94-9.854
								c-1.555-2.791-5.683-8.498-10.46-15.104c-15.877-21.952-29.054-40.92-29.479-50.695c-0.519-11.938,1.132-45.279,1.657-55.352
								l0.082-2.712h2.777c0,0-2.41,44.087-1.808,57.946c0.603,13.859,34.142,54.76,39.619,64.633
								c3.615,6.922-1.197,20.32-16.382,20.32h-28.871c-9.043,0-16.209,0-16.209,0h-28.871
								C1604.304,312.479,1599.492,299.082,1603.107,292.159z"/>
						</g>
						<path style="fill:#FFFFFF;" d="M1675.785,160.305v5.793c0,1.923-1.559,3.482-3.482,3.482h-31.675
							c-1.923,0-3.482-1.559-3.482-3.482v-5.793H1675.785z"/>
					</g>
					<path style="opacity:0.5;" d="M1619.491,312.48h28.869c0,0,7.167,0,16.206,0h28.878c14.38,0,19.46-12.021,16.875-19.171
						c-12.383,3.064-28.173,4.456-43.656-1.175c-26.049-9.464-30.83-35.793-31.689-46.449
						c-10.421,17.408-28.028,39.553-31.87,46.476C1599.489,299.085,1604.307,312.48,1619.491,312.48z"/>
					<path style="opacity:0.7;fill:#FFFFFF;" d="M1677.162,265.442c5.445,8.664,10.917,15.024,12.222,14.204
						c1.305-0.82-2.051-8.509-7.496-17.173c-5.445-8.664-10.917-15.024-12.222-14.204
						C1668.361,249.089,1671.718,256.778,1677.162,265.442z"/>
				</g>
				<g>
					<g>
						<g>
							<g>
								<polygon style="fill:#BBBCBF;" points="1729.341,241.382 1724.385,236.393 1710.859,249.825 1709.108,251.56 
									1705.132,255.508 1700.5,260.107 1705.539,265.185 1709.664,269.336 1714.29,264.744 1718.271,260.789 1720.023,259.049 
									1733.549,245.623 								"/>
								<polygon style="fill:#BBBCBF;" points="1742.642,255.42 1737.686,250.43 1724.16,263.862 1722.409,265.597 
									1718.432,269.546 1713.801,274.144 1718.84,279.222 1722.965,283.374 1727.591,278.781 1731.572,274.827 1733.324,273.087 
									1746.849,259.66 								"/>
								<polygon style="fill:#45C4C4;" points="1697.553,247.393 1703.611,253.483 1718.422,268.408 1730.619,280.72 
									1736.677,286.81 1744.482,279.069 1705.29,239.71 								"/>
								<polygon style="fill:#FFFFFF;" points="1710.318,244.628 1713.499,247.834 1716.946,251.296 1725.345,259.76 
									1726.77,261.194 1732.31,266.779 1735.758,270.251 1738.939,273.447 1836.653,176.426 1842.48,170.653 1838.686,166.829 
									1830.583,158.658 1828.526,156.58 1817.781,145.767 1813.869,141.829 1808.047,147.612 								"/>
								<polygon style="fill:#FFFFFF;" points="1808.363,155.205 1821.076,168.046 1829.218,176.277 1832.878,172.622 
									1838.686,166.829 1864.111,141.453 1868.424,137.15 1868.86,136.724 1860.906,128.706 1847.946,115.652 1843.187,120.381 
									1834.056,129.448 1817.781,145.767 1811.984,151.574 								"/>
								<polygon style="fill:#45C4C4;" points="1839.452,116.617 1843.187,120.381 1856.132,133.42 1864.111,141.453 
									1868.588,145.965 1874.187,140.405 1861.746,127.875 1845.052,111.062 								"/>
								<polygon style="fill:#45C4C4;" points="1808.047,147.612 1811.984,151.574 1824.741,164.425 1832.878,172.622 
									1836.653,176.426 1842.48,170.653 1838.686,166.829 1830.583,158.658 1828.526,156.58 1817.781,145.767 1813.869,141.829 
																	"/>
							</g>
							
								<rect x="1791.985" y="192.68" transform="matrix(-0.7046 -0.7096 0.7096 -0.7046 2912.1558 1662.4437)" style="fill:#BBBCBF;" width="20.279" height="64.722"/>
						</g>
						<path style="fill:#FFFFFF;" d="M1660.255,332.724c5.034,7.638,11.167,14.306,18.102,19.839c3.5,2.798,7.213,5.301,11.092,7.49
							c12.616,7.158,27.034,11.065,42.032,11.065c47.001,0,85.238-38.236,85.238-85.238c0-15.239-4.064-30.192-11.757-43.233
							c-2.263-3.833-4.821-7.49-7.647-10.926c-0.009,0-0.009,0-0.009,0v-0.009c-2.207-2.67-4.572-5.209-7.093-7.601l10.076-10.594
							v-0.009l0.101-0.093l4.341-4.572l0.166,0.167c7.093,6.779,13.217,14.491,18.204,22.942c3.907,6.622,7.057,13.623,9.43,20.883
							c0.009,0.037,0.028,0.083,0.046,0.138c1.81,4.6,22.729,61.714-18.712,147.755h-73.638l0.001-0.001h-50.84v-17.099h0.266
							c-12.813-5.479-24.489-13.461-34.323-23.575c-2.318-2.383-4.525-4.877-6.631-7.49c-2.124-2.632-4.138-5.384-6.022-8.248
							L1660.255,332.724z"/>
						<path style="opacity:0.1;" d="M1648.701,352.562l6.631,7.49h34.117c-3.879-2.189-7.592-4.692-11.092-7.49H1648.701z"/>
						<path style="fill:#E6E6E7;" d="M1837.212,416.234v8.834h-46.503v-24.339h-4.55c14.975-18.729,25.228-36.662,32.019-53.4
							c10.73-26.435,12.826-49.872,11.301-68.787c-2.467-30.772-14.524-49.514-14.524-49.514
							c-9.258,6.446-17.283,2.852-17.641,2.692c-0.013,0-0.013,0-0.013,0v-0.014l2.984-18.185v-0.013l0.106-0.093l4.51-4.403
							c7.096,6.778,13.211,14.484,18.198,22.933c3.913,6.632,7.056,13.622,9.43,20.891c0.014,0.04,0.026,0.08,0.053,0.133
							c1.804,4.602,22.721,61.717-18.715,147.76h7.839C1830.275,400.729,1837.212,407.666,1837.212,416.234z"/>
						<path style="fill:#BBBCBF;" d="M1837.212,416.234v8.834h-171.17v-8.834c0-8.568,6.937-15.505,15.505-15.505h140.159
							C1830.275,400.729,1837.212,407.666,1837.212,416.234z"/>
						<path style="opacity:0.1;" d="M1837.212,416.234v8.834h-46.503v-24.339h-4.55c14.975-18.729,25.228-36.662,32.019-53.4
							c10.73-26.435,12.826-49.872,11.301-68.787c-2.467-30.772-14.524-49.514-14.524-49.514
							c-9.258,6.446-17.283,2.852-17.641,2.692c-0.013,0-0.013,0-0.013,0v-0.014l2.984-18.185v-0.013l0.106-0.093l4.51-4.403
							c7.096,6.778,13.211,14.484,18.198,22.933c3.913,6.632,7.056,13.622,9.43,20.891c0.014,0.04,0.026,0.08,0.053,0.133
							c1.804,4.602,22.721,61.717-18.715,147.76h7.839C1830.275,400.729,1837.212,407.666,1837.212,416.234z"/>
						<polygon style="opacity:0.1;" points="1726.77,261.194 1732.31,266.779 1735.758,270.251 1738.939,273.447 1836.653,176.426 
							1842.48,170.653 1838.686,166.829 1864.111,141.453 1868.588,145.965 1874.187,140.405 1861.746,127.875 1860.906,128.706 
							1856.132,133.42 1830.583,158.658 1824.741,164.425 1821.076,168.046 						"/>
						<path style="fill:#45C4C4;" d="M1782.381,202.369c-6.779,6.731-6.818,17.684-0.087,24.463
							c6.731,6.78,17.684,6.819,24.464,0.088c6.78-6.731,6.819-17.684,0.088-24.463
							C1800.113,195.677,1789.161,195.637,1782.381,202.369z"/>
						<path style="fill:#FFFFFF;" d="M1787.869,207.896c-3.727,3.7-3.748,9.721-0.048,13.448c3.7,3.727,9.721,3.748,13.448,0.048
							c3.727-3.7,3.748-9.721,0.048-13.448C1797.617,204.218,1791.596,204.196,1787.869,207.896z"/>
						<path style="fill:#FFFFFF;" d="M1608.335,327.498v14.8c0,5.669,4.595,10.269,10.269,10.269h90.774
							c5.669,0,10.269-4.6,10.269-10.269v-14.8H1608.335z"/>
						<rect x="1608.335" y="327.498" style="opacity:0.1;" width="111.312" height="5.985"/>
					</g>
					<path style="fill:#BBBCBF;" d="M1593.739,312.562v6.105c0,1.376,0.314,2.669,0.868,3.824c1.432,2.965,4.461,5.006,7.962,5.006
						h118.819c3.51,0,6.53-2.041,7.962-5.006c0.554-1.155,0.868-2.447,0.868-3.824v-6.105H1593.739z"/>
					<path style="fill:#FFFFFF;" d="M1594.606,322.49c1.432,2.965,4.461,5.006,7.962,5.006h118.819c3.51,0,6.53-2.041,7.962-5.006
						H1594.606z"/>
				</g>
				<g>
					<path style="opacity:0.8;fill:#FFFFFF;" d="M1531.437,425.068h51.414c0,0,27.451-12.602,39.489-38.628
						c4.266-9.208,6.594-20.098,5.107-32.7c-4.789-38.966-52.337-48.523-54.911-58.398c-2.584-9.875,3.435-91.303,3.435-91.303
						h-37.643c0,0,6.009,81.429,3.435,91.303c-1.374,5.23-15.361,10.377-28.927,19.852c-12.039,8.409-23.739,20.232-25.994,38.546
						C1481.15,401.986,1531.437,425.068,1531.437,425.068z"/>
					<path style="fill:#4949E5;" d="M1592.36,336.151c0,0-22.843,9.286-39.078,6.21c-16.236-3.076-40.93-10.464-56.953-4.463
						c0,0,14.91,28.389,52.338,25.484C1586.095,360.477,1592.36,336.151,1592.36,336.151z"/>
					<path style="opacity:0.5;" d="M1592.36,336.151c0,0-22.843,9.286-39.078,6.21c-16.236-3.076-40.93-10.464-56.953-4.463
						c0,0,14.91,28.389,52.338,25.484C1586.095,360.477,1592.36,336.151,1592.36,336.151z"/>
					<path style="fill:#4949E5;" d="M1496.329,337.898c3.108,2.02,6.354,3.78,9.562,5.272c13.185,6.13,28.835,8.362,43.277,7.262
						c7.592-0.578,15.082-2.038,22.163-4.876c6.461-2.59,12.383-6.497,18.952-8.789c6.921-2.415,14.355-1.497,21.304,0.438
						c2.512,0.699,5.065,1.579,7.47,2.724c2.139,4.235,3.664,8.971,4.319,14.308c2.205,18.677-4.182,35.624-18.985,50.352
						c-9.579,9.531-19.675,14.962-22.488,16.377l-24.757-0.002l-24.755,0.002c-2.833-1.43-13.081-6.958-22.669-16.554
						c-14.676-14.689-21.003-31.577-18.805-50.195C1491.678,348.018,1493.617,342.632,1496.329,337.898z"/>
					<path style="fill:#FFFFFF;" d="M1486.843,353.737c4.785-38.966,52.339-48.518,54.915-58.394
						c2.576-9.876-3.435-91.304-3.435-91.304h4.604c-0.005,1.366,0.032,2.733,0.08,4.102h-0.276
						c1.301,18.259,5.396,79.03,2.995,88.238c-1.275,4.886-7.014,8.147-15.703,13.083c-15.248,8.663-36.132,20.526-39.108,44.757
						c-2.198,18.618,4.129,35.506,18.805,50.195c9.588,9.596,19.836,15.124,22.669,16.554l24.755-0.002l24.757,0.002
						c2.813-1.415,12.909-6.847,22.488-16.377c14.803-14.728,21.19-31.675,18.985-50.352c-2.978-24.25-23.862-36.114-39.11-44.776
						c-8.688-4.935-14.428-8.196-15.703-13.083c-2.402-9.208,1.694-69.979,2.995-88.238h-0.278c0.183-1.363,0.3-2.732,0.391-4.102
						h4.296c0,0-6.011,81.428-3.435,91.304c2.576,9.876,50.13,19.428,54.915,58.394c5.697,48.252-44.599,71.331-44.599,71.331
						l-25.703-0.001l-25.703,0.001C1531.442,425.068,1481.146,401.989,1486.843,353.737z"/>
					<path style="fill:#FFFFFF;" d="M1581.601,193.516v6.337c0,2.312-1.874,4.186-4.186,4.186h-40.54
						c-2.312,0-4.186-1.874-4.186-4.186v-6.337H1581.601z"/>
					<path style="opacity:0.3;" d="M1486.841,353.74c-5.691,48.246,44.595,71.328,44.595,71.328h51.414
						c0,0,27.451-12.602,39.489-38.628c-98.091,20.96-108.54-50.255-109.504-71.246
						C1500.797,323.603,1489.097,335.426,1486.841,353.74z"/>
					<path style="opacity:0.7;fill:#FFFFFF;" d="M1592.325,340.771c8.409,8.409,17.669,12.785,20.681,9.772
						c3.013-3.012-1.363-12.272-9.772-20.681c-8.41-8.41-17.669-12.785-20.681-9.772
						C1579.54,323.102,1583.915,332.362,1592.325,340.771z"/>
				</g>
				<g>
					<g>
						<g>
							<line style="fill:#6D6E70;" x1="1828.747" y1="335.661" x2="1847.063" y2="363.915"/>
							<polygon style="fill:#BBBCBF;" points="1832.116,333.484 1846.887,356.232 1850.434,361.738 1847.072,363.913 
								1843.69,366.088 1840.147,360.594 1825.381,337.838 1829.286,335.31 							"/>
						</g>
						<path style="fill:#4949E5;" d="M1839.932,364.008c0.242,0.836,0.781,1.746,1.41,2.721l34.022,56.039
							c1.088,1.672,2.988,2.503,4.778,2.256c0.643-0.084,1.271-0.307,1.845-0.677l2.958-1.919l0.861-0.554l2.058-1.316
							c0.43-0.277,0.801-0.618,1.103-1.009c1.222-1.553,1.37-3.834,0.188-5.649l-37.208-53.962
							c-0.702-1.103-1.395-2.082-2.162-2.646c-0.821-0.603-1.736-0.722-2.864,0.01l-0.124,0.079l-1.791,1.153v0.02l-1.014,0.648
							l-2.815,1.82l-0.124,0.074C1839.809,361.906,1839.601,362.885,1839.932,364.008z"/>
						<path style="opacity:0.3;" d="M1839.932,364.008c0.242,0.836,0.781,1.746,1.41,2.721l34.022,56.039
							c1.088,1.672,2.988,2.503,4.778,2.256c0.643-0.084,1.271-0.307,1.845-0.677l2.958-1.919l0.861-0.554l2.058-1.316
							c0.43-0.277,0.801-0.618,1.103-1.009c-4.571-1.291-12.238-4.625-18.119-13.153c-8.958-12.995-25.603-38.756-25.603-38.756
							l6.49-7.989l-5.036-0.614L1839.932,364.008z"/>
						
							<rect x="1835.993" y="357.939" transform="matrix(0.8368 -0.5475 0.5475 0.8368 103.5436 1068.9119)" style="fill:#4949E5;" width="17.78" height="5.643"/>
						<g>
							<path style="opacity:0.4;fill:#45C4C4;" d="M1824.349,264.961c0.108,0.049,0.225,0.113,0.332,0.162
								c3.823,1.866,7.368,4.361,10.51,7.444c0.155,0.156,0.321,0.315,0.476,0.471c1.928,1.936,3.681,4.107,5.225,6.503
								c0.726,1.14,1.402,2.291,1.999,3.472c0.674,1.307,1.262,2.63,1.782,3.985c3.305,8.566,3.514,17.831,0.951,26.314
								c-2.682,8.934-8.423,16.983-16.867,22.423c-3.864,2.493-7.996,4.241-12.212,5.275c-5.742,1.418-11.62,1.524-17.26,0.465
								c-3.55-0.629-6.982-1.769-10.235-3.358c-0.637-0.293-1.267-0.62-1.882-0.956c-5.738-3.141-10.783-7.711-14.565-13.577
								c-0.642-0.988-1.217-2.009-1.757-3.021c-0.861-1.638-1.609-3.298-2.227-4.999c-1.448-3.93-2.242-7.994-2.426-12.058
								c-0.23-4.686,0.363-9.358,1.742-13.81c2.688-8.861,8.404-16.855,16.793-22.261c5.317-3.433,11.141-5.454,17.04-6.165
								C1809.519,260.323,1817.353,261.621,1824.349,264.961z"/>
							<path style="fill:#ED770C;" d="M1781.72,262.757c-21.439,13.824-27.611,42.411-13.788,63.849
								c13.825,21.439,42.411,27.611,63.849,13.787c21.439-13.824,27.612-42.41,13.787-63.849
								C1831.745,255.105,1803.158,248.933,1781.72,262.757z M1772.598,323.597c-12.143-18.832-6.701-44.031,12.13-56.174
								c18.832-12.143,44.031-6.702,56.174,12.13c12.143,18.831,6.702,44.032-12.13,56.175
								C1809.941,347.87,1784.741,342.429,1772.598,323.597z"/>
						</g>
					</g>
					<path style="opacity:0.3;fill:#FFFFFF;" d="M1847.116,306.097c-0.161,1.462-0.404,2.889-0.72,4.306
						c-1.986,8.965-6.937,16.798-13.765,22.447l-60.851-10.634c-0.369-0.597-0.712-1.218-1.039-1.838
						c-3.043-5.791-4.717-12.388-4.623-19.367c0.011-1.179,0.098-2.346,0.208-3.489c0.189-1.841,0.484-3.637,0.91-5.396
						L1847.116,306.097z"/>
					<path style="opacity:0.3;fill:#FFFFFF;" d="M1841.655,280.801c0.063,0.1,0.125,0.218,0.188,0.319
						c2.153,3.67,3.725,7.708,4.638,12.015c0.043,0.216,0.094,0.44,0.136,0.655l-74.732-13.053c2.4-4.031,5.479-7.595,9.091-10.54
						L1841.655,280.801z"/>
				</g>
			</g>
		</g>
	</g>
</g>
</svg>
