<svg width="728" height="479" viewBox="0 0 728 479" fill="none" xmlns="http://www.w3.org/2000/svg">
<g clip-path="url(#clip0_21_41)">
<rect x="281.679" y="108.38" width="24.2588" height="87.7818" transform="rotate(11.5958 281.679 108.38)" fill="#eab308"/>
<path d="M280.01 118.361L286.485 85.1128L349.048 164.036L330.366 178.845L280.01 118.361Z" fill="#eab308"/>
<path d="M406.976 109.21L399.823 142.842L329.364 178.761L317.825 157.423L406.976 109.21Z" fill="#eab308"/>
<circle cx="335.69" cy="151.69" r="112.516" transform="rotate(11.5958 335.69 151.69)" stroke="#eab308" stroke-width="15"/>
<path d="M377.713 128.086L401.477 132.962L383.832 218.952L360.068 214.076L377.713 128.086Z" fill="#eab308"/>
<rect x="321.368" y="96.6106" width="12.7546" height="93.784" transform="rotate(11.5958 321.368 96.6106)" fill="#eab308"/>
<rect x="357.38" y="104" width="12.7546" height="93.784" transform="rotate(11.5958 357.38 104)" fill="#eab308"/>
<path d="M404.68 227.212C405.589 225.934 406.784 224.886 408.17 224.151C409.556 223.417 411.095 223.017 412.663 222.982C414.231 222.948 415.785 223.281 417.202 223.954C418.619 224.627 419.858 225.622 420.822 226.86L454.656 215.36L449.965 233.327L418.555 241.493C416.589 242.826 414.216 243.423 411.853 243.181C409.49 242.939 407.287 241.872 405.632 240.168C403.977 238.465 402.974 236.232 402.8 233.863C402.626 231.494 403.292 229.139 404.68 227.212Z" fill="#FFB8B8"/>
<path d="M670.431 476.923C672.925 450.07 679.811 423.809 690.816 399.188C693.883 392.337 697.259 385.636 700.944 379.086C701.89 377.4 699.3 375.886 698.353 377.572C684.954 401.428 675.567 427.325 670.567 454.227C669.176 461.739 668.131 469.305 667.431 476.923C667.254 478.845 670.255 478.833 670.431 476.923Z" fill="#E6E6E6"/>
<path d="M708.209 383.897C718.703 383.897 727.209 375.39 727.209 364.897C727.209 354.404 718.703 345.897 708.209 345.897C697.716 345.897 689.209 354.404 689.209 364.897C689.209 375.39 697.716 383.897 708.209 383.897Z" fill="#E6E6E6"/>
<path d="M672.375 477.428C673.992 460.007 678.46 442.97 685.599 426.997C687.589 422.552 689.779 418.205 692.17 413.956C692.289 413.734 692.318 413.474 692.25 413.231C692.182 412.987 692.022 412.78 691.804 412.653C691.586 412.525 691.327 412.488 691.082 412.548C690.836 412.607 690.624 412.76 690.489 412.974C681.796 428.451 675.707 445.251 672.463 462.704C671.561 467.577 670.883 472.485 670.429 477.428C670.313 478.674 672.26 478.667 672.375 477.428Z" fill="#E6E6E6"/>
<path d="M696.883 417.077C703.691 417.077 709.209 411.559 709.209 404.751C709.209 397.944 703.691 392.425 696.883 392.425C690.076 392.425 684.557 397.944 684.557 404.751C684.557 411.559 690.076 417.077 696.883 417.077Z" fill="#E6E6E6"/>
<path d="M669.918 476.264C660.479 461.533 653.523 445.352 649.328 428.367C648.163 423.638 647.216 418.864 646.487 414.043C646.445 413.794 646.308 413.571 646.105 413.422C645.901 413.272 645.648 413.207 645.397 413.241C645.147 413.274 644.92 413.404 644.763 413.602C644.607 413.8 644.533 414.051 644.558 414.302C647.223 431.852 652.755 448.845 660.932 464.6C663.218 468.998 665.702 473.285 668.384 477.461C669.06 478.515 670.59 477.311 669.918 476.264Z" fill="#E6E6E6"/>
<path d="M644.542 416.212C651.35 416.212 656.869 410.693 656.869 403.886C656.869 397.078 651.35 391.56 644.542 391.56C637.735 391.56 632.216 397.078 632.216 403.886C632.216 410.693 637.735 416.212 644.542 416.212Z" fill="#E6E6E6"/>
<path d="M571.31 298.525C572.119 297.298 572.65 295.908 572.864 294.454C573.078 292.999 572.971 291.516 572.55 290.107C572.129 288.699 571.404 287.4 570.426 286.302C569.449 285.204 568.243 284.333 566.892 283.752L569.483 248.111L553.28 257.183L553.304 289.638C552.478 291.971 552.536 294.526 553.468 296.819C554.4 299.112 556.14 300.983 558.36 302.079C560.579 303.174 563.123 303.418 565.51 302.763C567.897 302.108 569.961 300.6 571.31 298.525Z" fill="#FFB8B8"/>
<path d="M567.279 159.979L571.709 273.397L553.709 272.397L549.709 153.397L553.505 151.611C554.95 150.931 556.54 150.62 558.134 150.704C559.727 150.789 561.276 151.267 562.64 152.096C564.004 152.924 565.141 154.078 565.951 155.454C566.76 156.829 567.217 158.384 567.279 159.979Z" fill="#6C63FF"/>
<path d="M511.612 466.235L499.352 466.234L493.52 418.946L511.614 418.947L511.612 466.235Z" fill="#FFB8B8"/>
<path d="M490.595 462.731H514.239V477.618H475.708C475.708 475.663 476.093 473.727 476.841 471.921C477.589 470.115 478.686 468.474 480.068 467.092C481.451 465.709 483.092 464.613 484.898 463.865C486.704 463.116 488.64 462.731 490.595 462.731Z" fill="#2F2E41"/>
<path d="M613.615 451.583L602.489 456.734L577.329 416.272L593.749 408.671L613.615 451.583Z" fill="#FFB8B8"/>
<path d="M593.071 457.234L614.527 447.301L620.781 460.811L585.816 476.997C584.157 473.414 583.989 469.319 585.35 465.613C586.711 461.907 589.488 458.893 593.071 457.234Z" fill="#2F2E41"/>
<path d="M482.502 311.908L495.146 456.197L512.146 454.197L524.71 322.397L594.146 448.197L612.146 443.197C612.146 443.197 554.21 269.897 549.71 255.397C544.777 239.502 505.71 233.397 505.71 233.397L504.21 231.897C487.423 254.495 480.699 283.815 482.502 311.908Z" fill="#2F2E41"/>
<path d="M549.859 139.093C563.424 139.093 574.42 128.096 574.42 114.532C574.42 100.967 563.424 89.9706 549.859 89.9706C536.294 89.9706 525.298 100.967 525.298 114.532C525.298 128.096 536.294 139.093 549.859 139.093Z" fill="#FFB8B8"/>
<path d="M565.279 161.922L548.209 250.892C548.209 250.892 522.269 245.712 513.029 239.472C509.369 236.992 506.049 234.432 503.249 232.112C502.699 231.662 502.179 231.212 501.669 230.782C497.049 226.832 494.209 223.892 494.209 223.892C494.209 223.892 495.688 216.642 497.499 208.062C499.519 198.452 501.969 187.162 503.219 182.552C505.969 172.442 515.409 160.662 522.769 152.642C525.433 149.734 528.84 147.606 532.622 146.485C536.404 145.365 540.42 145.295 544.239 146.282L557.559 149.722C560.156 150.392 562.4 152.027 563.835 154.294C565.269 156.56 565.785 159.288 565.279 161.922Z" fill="#6C63FF"/>
<path opacity="0.2" d="M523.999 200.782C523.999 200.782 514.819 219.862 501.669 230.782C497.049 226.832 494.209 223.892 494.209 223.892C494.209 223.892 495.688 216.642 497.499 208.062C508.519 202.242 519.879 198.572 523.999 200.782Z" fill="black"/>
<path d="M540.279 165.857C539.372 165.395 538.425 165.019 537.448 164.733C535.454 164.186 533.355 164.143 531.34 164.608C529.325 165.072 527.457 166.029 525.903 167.393L471.945 206.916L429.031 221.351L436.785 239.692L500.761 224.068L543.19 186.36C544.651 184.96 545.757 183.232 546.417 181.32C547.078 179.407 547.274 177.365 546.989 175.362C546.705 173.359 545.948 171.453 544.781 169.8C543.614 168.147 542.071 166.796 540.279 165.857Z" fill="#6C63FF"/>
<path d="M551.313 138.867C554.808 133.634 557.567 126.379 553.718 121.401C549.919 116.486 542.426 117.21 536.608 115.036C528.504 112.007 523.804 102.487 525.27 93.9603C526.735 85.434 533.58 78.3659 541.734 75.4739C549.887 72.5819 559.082 73.5224 567.067 76.8527C576.896 80.9524 585.328 88.883 588.864 98.929C592.399 108.975 590.509 121.037 583.174 128.759C575.31 137.037 562.969 139.243 551.552 139.109" fill="#2F2E41"/>
<path d="M589.881 109.907C590.882 115.498 597.015 118.673 602.652 119.371C608.289 120.069 614.12 119.174 619.607 120.64C629.281 123.225 635.662 132.528 639.174 141.906C642.686 151.283 644.244 161.404 648.807 170.317C653.37 179.231 662.217 187.089 672.196 186.255C670.241 191.177 666.815 195.375 662.386 198.278C657.957 201.181 652.74 202.646 647.447 202.475C642.154 202.303 637.043 200.503 632.812 197.319C628.58 194.135 625.433 189.724 623.801 184.686C620.136 173.369 624.344 159.873 617.933 149.852C614.386 144.307 608.26 141.045 602.354 138.139C596.447 135.233 590.248 132.25 586.288 126.992C582.328 121.733 581.537 113.429 586.417 109.011" fill="#2F2E41"/>
<path d="M709.485 478.144H389.191C388.875 478.144 388.572 478.019 388.349 477.796C388.125 477.572 388 477.27 388 476.954C388 476.638 388.125 476.335 388.349 476.112C388.572 475.888 388.875 475.763 389.191 475.763H709.485C709.8 475.763 710.103 475.888 710.327 476.112C710.55 476.335 710.675 476.638 710.675 476.954C710.675 477.27 710.55 477.572 710.327 477.796C710.103 478.019 709.8 478.144 709.485 478.144Z" fill="#3F3D56"/>
<path d="M321.485 478.144H1.19069C0.874901 478.144 0.572035 478.019 0.34874 477.796C0.125444 477.572 0 477.27 0 476.954C0 476.638 0.125444 476.335 0.34874 476.112C0.572035 475.888 0.874901 475.763 1.19069 475.763H321.485C321.8 475.763 322.103 475.888 322.327 476.112C322.55 476.335 322.675 476.638 322.675 476.954C322.675 477.27 322.55 477.572 322.327 477.796C322.103 478.019 321.8 478.144 321.485 478.144Z" fill="#3F3D56"/>
<path d="M205.801 465.134L217.522 461.537L209.226 414.618L191.928 419.927L205.801 465.134Z" fill="#A0616A"/>
<path d="M243.465 465.483L206.63 476.788L202.262 462.556L224.865 455.619C228.64 454.461 232.72 454.849 236.208 456.699C239.696 458.549 242.306 461.709 243.465 465.483Z" fill="#2F2E41"/>
<path d="M101.803 465.403H114.063L119.895 418.115L101.801 418.116L101.803 465.403Z" fill="#A0616A"/>
<path d="M137.707 476.786L99.1763 476.788L99.1756 461.901L122.819 461.9C126.768 461.9 130.554 463.468 133.346 466.259C136.138 469.051 137.707 472.838 137.707 476.786Z" fill="#2F2E41"/>
<path d="M104.924 308.326C103.916 307.443 103.115 306.35 102.576 305.124C102.037 303.898 101.773 302.568 101.804 301.229C101.834 299.89 102.157 298.574 102.751 297.373C103.346 296.173 104.196 295.117 105.242 294.28L114.747 174.586L134.078 179.415L118.6 296.174C119.889 298.025 120.454 300.284 120.189 302.523C119.923 304.763 118.845 306.827 117.159 308.325C115.474 309.823 113.297 310.65 111.042 310.65C108.787 310.65 106.61 309.824 104.924 308.326Z" fill="#A0616A"/>
<path d="M150.634 129.162C164.199 129.162 175.195 118.166 175.195 104.601C175.195 91.0361 164.199 80.0398 150.634 80.0398C137.07 80.0398 126.073 91.0361 126.073 104.601C126.073 118.166 137.07 129.162 150.634 129.162Z" fill="#A0616A"/>
<path d="M117.088 176.96C111.251 168.947 111.071 157.911 117.359 150.247C121.462 145.245 128.325 141.242 139.784 141.242C170.327 141.242 181.912 165.466 181.912 165.466C181.912 165.466 194.551 188.637 187.178 209.701C179.806 230.765 179.806 232.871 179.806 232.871L131.358 228.658C131.358 228.658 139.532 207.772 117.088 176.96Z" fill="#CCCCCC"/>
<path d="M102.148 197.928L112.585 163.782C113.284 161.496 114.477 159.391 116.078 157.616C117.68 155.842 119.653 154.44 121.856 153.511C124.059 152.583 126.439 152.149 128.828 152.241C131.217 152.334 133.557 152.95 135.682 154.045C139.368 155.955 142.191 159.195 143.577 163.108C144.963 167.021 144.809 171.316 143.147 175.12L129.878 205.338L102.148 197.928Z" fill="#CCCCCC"/>
<path d="M178.753 227.605L219.828 440.352L197.71 446.671L143.997 306.595L119.773 449.831L96.6027 452.991C96.6027 452.991 86.439 263.472 131.358 228.658L178.753 227.605Z" fill="#2F2E41"/>
<path d="M233.959 205.523C233.603 205.947 233.281 206.398 232.996 206.872L183.461 209.274L173.923 180.154L157.361 188.026L172.949 231.397L234.211 219.416C235.65 220.988 237.534 222.084 239.612 222.559C241.69 223.034 243.863 222.865 245.842 222.075C247.821 221.285 249.513 219.91 250.693 218.135C251.872 216.36 252.483 214.268 252.444 212.137C252.406 210.006 251.719 207.937 250.476 206.206C249.233 204.475 247.493 203.163 245.486 202.445C243.479 201.727 241.302 201.637 239.242 202.187C237.183 202.737 235.34 203.9 233.959 205.523Z" fill="#A0616A"/>
<path d="M149.898 168.525C149.619 166.15 149.864 163.743 150.617 161.474C151.37 159.205 152.613 157.129 154.257 155.393C155.9 153.657 157.905 152.303 160.13 151.427C162.355 150.551 164.745 150.174 167.131 150.323C171.274 150.589 175.161 152.421 178.004 155.447C180.846 158.473 182.432 162.466 182.439 166.618V199.62L154.07 203.985L149.898 168.525Z" fill="#CCCCCC"/>
<path d="M156.036 129.385C152.35 129.369 149.506 125.487 149.671 121.805C149.836 118.122 152.31 114.882 155.29 112.712C158.27 110.542 161.764 109.22 165.088 107.624C168.411 106.029 171.705 104.039 173.757 100.976C174.996 98.9716 175.736 96.6987 175.914 94.3487C176.092 91.9986 175.703 89.6402 174.78 87.4718C172.871 83.1349 169.592 79.5434 165.447 77.2476C159.279 73.672 152.001 72.5212 145.03 74.0195C138.142 75.5307 127.876 79.7147 123.84 85.498L119.632 96.9558C115.344 102.112 118.664 109.769 121.3 115.936C123.935 122.102 129.548 126.741 135.881 128.947C142.306 131.012 149.184 131.218 155.722 129.542" fill="#2F2E41"/>
<path d="M133.589 91.2243C131.781 88.325 128.645 86.481 125.404 85.3988C121.648 84.1451 117.654 83.7751 113.733 84.3176C109.811 84.86 106.068 86.3003 102.794 88.5262C99.5199 90.7522 96.8039 93.7037 94.8574 97.1511C92.9108 100.598 91.7862 104.449 91.5711 108.402C91.2276 114.716 93.2048 120.891 94.3666 127.107C95.5284 133.323 95.7595 140.188 92.3321 145.503C89.7216 149.551 85.3683 152.099 81.0713 154.275C77.49 156.089 73.6162 157.791 69.6182 157.43C65.6201 157.068 61.6017 153.902 61.7078 149.889C60.3694 152.766 59.4657 155.826 59.0262 158.969C58.7449 162.125 59.5228 165.53 61.8022 167.731C65.1153 170.93 70.3648 170.696 74.9179 170.005C84.7749 168.511 94.7561 165.71 102.543 159.485C110.331 153.26 115.498 143.01 113.447 133.254C112.591 129.178 110.577 125.458 108.951 121.624C107.324 117.79 106.054 113.597 106.801 109.5C107.243 107.389 108.144 105.401 109.438 103.677C110.733 101.952 112.39 100.532 114.293 99.5183C118.143 97.517 122.547 96.8491 126.816 97.6193C129.615 98.0786 133.11 98.7918 134.77 96.4919C135.21 95.7633 135.435 94.925 135.418 94.0741C135.402 93.2231 135.145 92.3942 134.677 91.6833C133.719 90.2771 132.499 89.0685 131.084 88.1237" fill="#2F2E41"/>
</g>
<defs>
<clipPath id="clip0_21_41">
<rect width="727.21" height="478.36" fill="none"/>
</clipPath>
</defs>
</svg>
