<svg xmlns="http://www.w3.org/2000/svg" width="855.47002" height="681.75536" viewBox="0 0 855.47002 681.75536" xmlns:xlink="http://www.w3.org/1999/xlink"><path d="M571.5975,149.33241c-.12527,.02138-.31293,.05318-.54042,.09083-4.45166,.73689-31.36603,4.88942-58.50119-5.44719-11.49536-4.37895-7.57399-5.47034-33.17593-20.69436-30.0155-17.84848-37.71851-17.72375-39.95371-26.04619-4.46318-16.61855,19.36904-42.74324,35.1434-41.02317,4.15301,.45287,8.60071,2.92883,15.5185,1.24997,1.51988-.36885,8.17314-1.9835,11.41664-7.49075,2.89343-4.91287,.44277-8.45685,1.60645-12.4861,3.0544-10.57625,28.51545-15.85436,50.83788-12.12509,12.83894,2.14495,22.82514,8.00077,42.27314,19.62489,33.85001,20.23208,50.77483,30.34814,54.57873,45.84706,3.60544,14.69016-5.04806,21.02,1.24544,36.74533,5.86013,14.64221,15.16756,13.66425,18.3704,25.50919,5.15408,19.06075-13.97551,39.98007-21.94432,48.69443-8.73679,9.55424-17.0924,14.79793-28.18511,21.75929-13.92329,8.73773-20.88475,13.10657-29.25457,12.66208-15.17489-.8059-60.26717,1.93742-60.85533-10.62024-.22038-4.70619-54.90973-.85278-27.98046-51.52012,3.30301-6.2146,68.00945,.42355,68.86346-3.14656" fill="#2f2e41"/><polygon points="597.78694 181.75476 644.29875 251.13271 510.78694 278.13271 519.29088 191.27409 597.78694 181.75476" fill="#ffb6b6"/><polygon points="597.78694 181.75476 644.29875 251.13271 510.78694 278.13271 519.29088 191.27409 597.78694 181.75476" opacity=".1"/><polygon points="500.78694 233.13271 644.78694 227.13271 708.78694 262.13271 705.78694 487.13271 772.78694 614.13271 434.78694 550.13271 460.78694 454.13271 448.78694 252.13271 500.78694 233.13271" fill="#088395"/><path d="M3.87807,670.23562c-4.5973-7.24667-5.14023-16.20053-1.45205-23.95072l54.80692-115.15585c4.0904-8.59445,12.88363-14.14749,22.40161-14.14749H771.88865c9.25309,0,17.67165,5.09022,21.9693,13.28457l58.74558,111.9822c4.06073,7.74086,3.79329,16.83204-.71458,24.32114-4.50787,7.48825-12.41699,11.97917-21.15724,12.01393l-805.80659,3.17195h-.10087c-8.54232,0-16.36752-4.30104-20.94617-11.51974Z" fill="#fff"/><path d="M3.87807,670.23562c-4.5973-7.24667-5.14023-16.20053-1.45205-23.95072l54.80692-115.15585c4.0904-8.59445,12.88363-14.14749,22.40161-14.14749H771.88865c9.25309,0,17.67165,5.09022,21.9693,13.28457l58.74558,111.9822c4.06073,7.74086,3.79329,16.83204-.71458,24.32114-4.50787,7.48825-12.41699,11.97917-21.15724,12.01393l-805.80659,3.17195h-.10087c-8.54232,0-16.36752-4.30104-20.94617-11.51974Zm75.75648-150.65004c-8.51901,0-16.38914,4.9707-20.05019,12.66239L4.77744,647.40382c-3.30122,6.93643-2.81551,14.95023,1.29947,21.4374,4.09845,6.46089,11.10142,10.31012,18.74776,10.31012h.09028l805.80659-3.17195c7.82266-.03052,14.90191-4.05098,18.93637-10.75345,4.03488-6.70247,4.27392-14.84003,.63999-21.76714l-58.74558-111.9839c-3.84712-7.33313-11.38157-11.88932-19.66366-11.88932H79.63456Z" fill="#3f3d56"/><path d="M707.43831,637.73232l-285.67432-19.64063c-4.21777-.29004-7.58154-3.13379-8.56934-7.24414-.98828-4.11035,.71582-8.17187,4.34082-10.34668l63.1709-37.90332c1.604-.96289,3.44385-1.43066,5.30908-1.34082l247.10596,11.23242c3.26709,.14746,6.18506,1.93164,7.80566,4.77246,1.62109,2.83984,1.67236,6.25977,.13818,9.14746l-24.60254,46.31152c-1.65137,3.1084-4.88867,5.03418-8.37402,5.03418-.21582,0-.43311-.00781-.65039-.02246Z" fill="#3f3d56"/><polygon points="419.28694 606.63271 703.78694 626.13271 726.28694 577.63271 482.34011 568.06586 419.28694 606.63271" fill="#fff"/><circle cx="559.28673" cy="119.63292" r="85.492" fill="#ffb6b6"/><path d="M586.82325,125.16526c-.12527,.02138-.31293,.05318-.54042,.09083-4.45166,.73689-31.36603,4.88942-58.50119-5.44719-11.49536-4.37895-7.57399-5.47034-33.17593-20.69436-30.0155-17.84848-37.71851-17.72375-39.95371-26.04619-4.46318-16.61855,19.36904-42.74324,35.1434-41.02317,4.15301,.45287,8.60071,2.92883,15.5185,1.24997,1.51988-.36885,8.17314-1.9835,11.41664-7.49075,2.89343-4.91287,.44277-8.45685,1.60645-12.4861,3.0544-10.57625,28.51545-15.85436,50.83788-12.12509,12.83894,2.14495,22.82514,8.00077,42.27314,19.62489,33.85001,20.23208,50.77483,30.34814,54.57873,45.84706,3.60544,14.69016-5.04806,21.02,1.24544,36.74533,5.86013,14.64221,15.16756,13.66425,18.3704,25.50919,5.15408,19.06075-13.97551,39.98007-21.94432,48.69443-8.73679,9.55424-17.0924,14.79793-28.18511,21.75929-13.92329,8.73773-20.88475,13.10657-29.25457,12.66208-15.17489-.8059-30.26834-14.55799-30.8565-27.11565-.22038-4.70619,1.74286-6.11756,6.6018-22.29628,2.02428-6.74043,3.42836-12.30488,4.28237-15.87499" fill="#2f2e41"/><path d="M508.69182,579.99657l1.52937-9.45755,84.874-162.21922c1.4057-2.68671,4.7363-3.72925,7.42301-2.32355,2.68714,1.40593,3.72925,4.7363,2.32355,7.42301l-84.83643,162.1474-6.9356,6.72045c-.82045,.79082-2.00383,.96081-3.01405,.43225-1.00979-.52833-1.54487-1.59742-1.36386-2.7228Z" fill="#3f3d56"/><path d="M566.54507,476.78954c9.57552,1.80268,18.58002,5.87235,26.26015,11.86853l.43221,.09321,.08732-.43044,92.5018,14.48851-6.70141-123.03589,70.10474-38.39695-16.57008,207.97273c-3.58858,13.28197-17.37253,21.03901-30.58828,17.2138l-117.75084-33.86962,.29404-1.44899-.41161-.11083c-9.41061,2.53809-19.29222,2.78507-28.81774,.72023-23.89682-4.83605-40.77191-21.08616-37.69175-36.29379,3.08013-15.20752,24.94674-23.61153,48.85145-18.77051Z" fill="#ffb6b6"/><path d="M629.78694,284.13271l79-22s41.5,30.5,46.5,63.5c.59466,3.92476,2.24425,186.74591,.5,191.5-12.9217,35.21903-84-21-84-21l-42-212Z" fill="#088395"/><path d="M287.12239,612.72158l-8.18994-7.01953h-.00049c-1.21924-1.0459-2.70166-1.73828-4.28711-2.00293l-182.48291-30.41406c-4.16504-.69434-7.2417-3.70215-8.02979-7.85059-.7876-4.14844,.97217-8.0752,4.59326-10.24805l65.10156-39.06055c2.17578-1.30566,4.73633-1.7168,7.21338-1.15723l231.37354,52.27344c4.49805,1.01563,7.5,4.65039,7.64746,9.25977s-2.61621,8.42871-7.04102,9.73047l-96.74072,28.45312c-.91797,.27051-1.854,.40234-2.78223,.40234-2.30908,0-4.56885-.81738-6.375-2.36621Z" fill="#4D4C7D"/><path d="M199.24265,385.8823c9.04537,3.62236,17.09164,9.35828,23.46563,16.72787l.40598,.17512,.16901-.40539,87.94686,32.12243,93.90282-152.04197,51.91219,32.17336-108.87774,174.59479c-6.09203,12.33596-21.11694,17.27772-33.34212,10.96636l-108.96609-56.025,.56899-1.36465-.38237-.18842c-9.72393,.66821-19.46642-1.00253-28.41198-4.87241-22.50848-9.3709-35.91835-28.58053-29.95231-42.90414,5.96598-14.32351,29.04589-18.33523,51.56115-8.95792Z" fill="#ffb6b6"/><path d="M505.86641,309.90886l-41.53395-62.10999s-49.42467,9.78272-69.78432,36.2305c-2.54495,3.30597-89.96333,130.0895-90.52652,135.62245-3.94234,38.7307,96.52917,56.87811,96.52917,56.87811l105.31562-166.62107Z" fill="#088395"/><path d="M282.60237,614.58779l-209.18164-28.91211c-7.00098-.9668-12.7793-5.9834-14.72168-12.7793L10.6556,404.74404c-1.62793-5.69922-.4126-11.60059,3.33447-16.19238s9.2832-6.96484,15.19482-6.51367l210.75049,16.14648c7.62451,.58398,14.0249,5.95313,15.92773,13.35938l46.47412,180.91797c1.48291,5.77344,0,11.87598-3.96777,16.32422-3.4165,3.83105-8.26123,5.9707-13.31152,5.9707-.81445,0-1.63525-.05566-2.45557-.16895Z" fill="#3f3d56"/></svg>