<svg width="740" height="551" viewBox="0 0 740 551" fill="none" xmlns="http://www.w3.org/2000/svg">
<rect x="66" y="97.4541" width="97" height="351" fill="#088395"/>
<path d="M67.4871 137.891L66.1278 2.45416L374.617 261.308L313.344 334.33L67.4871 137.891Z" fill="#088395"/>
<path d="M557.451 0L556.466 137.484L309.35 334.806L247 260.499L557.451 0Z" fill="#088395"/>
<path d="M458 97.4542H555V169.454L458 246.454V97.4542Z" fill="#088395"/>
<path d="M181 251.454L278 331.152V550.454H181V251.454Z" fill="#37B7C3"/>
<path d="M323.5 346.954L397.25 285.997L484.617 359.308L423.344 432.33L323.5 346.954Z" fill="#37B7C3"/>
<path d="M672.451 97.4542L671.466 234.938L424.35 432.26L362 357.954L672.451 97.4542Z" fill="#37B7C3"/>
<rect x="573" y="194.908" width="97" height="352" fill="#37B7C3"/>
</svg>